<svg width="1840" height="943" viewBox="0 0 1840 943" fill="none" xmlns="http://www.w3.org/2000/svg">
<path opacity="0.1" fill-rule="evenodd" clip-rule="evenodd" d="M1121.75 928.276C1121.75 920.842 1159.28 914.816 1205.56 914.816C1251.85 914.816 1289.37 920.842 1289.37 928.276C1289.37 935.71 1251.85 941.736 1205.56 941.736C1159.28 941.736 1121.75 935.71 1121.75 928.276Z" fill="#236BFE"/>
<path opacity="0.1" fill-rule="evenodd" clip-rule="evenodd" d="M1556.55 928.653C1556.55 921.219 1603.37 915.193 1661.12 915.193C1718.88 915.193 1765.7 921.219 1765.7 928.653C1765.7 936.087 1718.88 942.113 1661.12 942.113C1603.37 942.113 1556.55 936.087 1556.55 928.653Z" fill="#236BFE"/>
<path opacity="0.1" fill-rule="evenodd" clip-rule="evenodd" d="M901.492 559.775H988.78V678.747H907.883C907.668 679.969 907.461 681.198 907.238 682.428H988.78V778.377C988.634 778.334 988.505 778.283 988.367 778.231C986.062 777.319 983.775 776.356 981.487 775.324L980.025 774.662C977.731 773.578 975.438 772.431 973.144 771.221C972.344 770.8 971.544 770.361 970.753 769.914C958.021 762.782 946.454 753.744 936.454 743.115C936.161 742.831 935.886 742.53 935.594 742.254C934.2 740.741 932.833 739.21 931.508 737.645L930.046 735.924C928.481 734.007 926.967 732.037 925.497 730.042C925.282 729.749 925.075 729.457 924.852 729.181C918.87 720.888 913.904 711.908 910.059 702.434C909.938 702.15 909.835 701.84 909.723 701.573C908.542 698.535 907.496 695.467 906.584 692.371C906.188 691.072 905.81 689.791 905.483 688.44C905.363 688.045 905.259 687.658 905.165 687.271C900.28 668.203 899.703 648.396 899.703 628.726C899.703 626.43 899.703 624.125 899.703 621.845C899.703 613.89 899.798 605.883 899.936 597.884C899.936 595.811 900.022 593.747 900.065 591.666C900.185 586.385 900.357 581.104 900.581 575.823C900.632 574.353 900.701 572.891 900.778 571.429C900.778 570.586 900.821 569.743 900.907 568.9C901.114 565.838 901.286 562.802 901.492 559.775H901.492Z" fill="#236BFE"/>
<path opacity="0.1" fill-rule="evenodd" clip-rule="evenodd" d="M988.78 427.306H940.899C948.682 415.123 957.187 403.415 966.366 392.246C973.479 383.507 980.988 374.992 988.78 366.786V427.306Z" fill="#236BFE"/>
<path opacity="0.1" fill-rule="evenodd" clip-rule="evenodd" d="M988.78 430.988V556.092H901.762C901.762 555.731 901.822 555.361 901.848 555C901.925 554.011 902.003 553.022 902.089 552.041C902.183 550.889 902.286 549.728 902.398 548.601C902.51 547.475 902.63 546.098 902.759 544.851C902.889 543.604 903.009 542.34 903.155 541.093C903.301 539.846 903.43 538.599 903.585 537.36C903.74 536.122 903.878 534.866 904.041 533.628C904.17 532.596 904.308 531.572 904.445 530.54C904.643 529.087 904.85 527.624 905.073 526.18C905.073 525.965 905.133 525.741 905.168 525.534C906.738 514.957 908.877 504.472 911.576 494.125C914.401 483.271 918.008 472.636 922.37 462.303C927.006 451.494 932.434 441.041 938.609 431.031L988.78 430.988Z" fill="#236BFE"/>
<path opacity="0.1" fill-rule="evenodd" clip-rule="evenodd" d="M1696.47 431.019H1510.03L1506.37 434.373V556.091H1538.48H1538.53V556.091H1767.65V497.133C1746.92 472.066 1723 449.825 1696.5 430.976L1696.47 431.019ZM1611.27 385.288C1609.91 384.772 1608.55 384.247 1607.19 383.74C1592.76 378.414 1578.02 373.985 1563.05 370.478L1512.84 425.583V425.583L1511.88 426.606L1512.52 427.312H1691.23C1666.34 410.179 1639.51 396.058 1611.3 385.245L1611.27 385.288ZM1788.45 525.137V556.1H1806.92C1801.33 545.441 1795.17 535.091 1788.47 525.094L1788.45 525.137ZM1788.45 682.463V800.293C1802.96 786.377 1815.23 770.457 1824.06 752.258C1834.68 730.343 1839.54 706.614 1839.94 682.445L1788.45 682.463ZM1817.99 579.356C1817.01 577.043 1815.99 574.746 1814.95 572.476C1813 568.175 1810.95 563.995 1808.83 559.815H1788.45V678.747H1839.98C1839.96 645.066 1831.43 610.663 1818.02 579.313L1817.99 579.356ZM1766.66 819.413L1767.58 682.42H1506.37V889.329C1523.19 890.036 1540.05 889.835 1556.85 888.727H1556.85H1557.15C1565.17 888.222 1573.16 887.488 1581.12 886.525H1581.3C1623.73 881.587 1665.21 870.517 1704.46 853.661M1506.37 559.807V678.747H1767.62V559.764L1506.37 559.807ZM1506.37 361.946V401.664L1539.18 365.661C1528.31 363.907 1517.37 362.654 1506.37 361.903V361.946ZM1216.92 559.764V678.747H1485.52V559.764H1216.92ZM1216.92 430.976V556.091H1485.52V430.976H1216.92ZM1485.48 809.969V682.42H1430.71C1430.56 681.878 1430.41 681.327 1430.24 680.777C1430.4 681.327 1430.54 681.878 1430.7 682.42H1216.92V774.663C1218.95 776.168 1220.95 777.751 1222.94 779.359V779.359C1225.08 781.079 1227.19 782.894 1229.32 784.674L1231.46 786.446C1232.48 787.306 1233.52 788.166 1234.56 788.975C1236.62 790.649 1238.7 792.3 1240.81 793.929C1241.85 794.789 1242.92 795.563 1243.97 796.371C1260.77 809.212 1278.49 820.8 1296.98 831.041C1301.13 833.335 1305.31 835.574 1309.53 837.758C1312.34 839.195 1315.17 840.622 1318.01 842.007C1322.28 844.089 1326.58 846.095 1330.91 848.028V848.028C1370.88 865.968 1413.14 878.278 1456.48 884.607C1466.11 886.029 1475.77 887.147 1485.48 887.961V809.961H1486.34L1485.48 809.969ZM1459.78 369.497L1485.48 397.708V362.1C1476.87 363.167 1469.33 365.704 1459.81 369.463L1459.78 369.497ZM1435.53 373.798C1423.85 373.385 1412.24 369.686 1401.74 363.975C1381.66 353.052 1365.61 336.186 1347.69 321.952C1310.45 292.305 1264.26 274.415 1216.88 269.977V427.303H1483.03L1483.69 426.606L1435.53 373.798ZM1196.06 427.303V268.902C1175.65 268.681 1155.29 271.069 1135.48 276.007C1088.27 287.867 1045.91 313.592 1009.62 346.447V427.294H1018.98V430.967H1009.62V556.091H1196.06V430.976H1057.4V427.303H1196.06ZM1009.62 682.42V784.597C1010.69 784.821 1011.74 785.036 1012.79 785.216C1014.22 785.491 1015.64 785.741 1017.09 785.956C1017.37 785.999 1017.65 786.042 1017.95 786.068C1018.52 786.162 1019.11 786.24 1019.67 786.317C1021.11 786.515 1022.54 786.678 1023.97 786.807C1024.65 786.876 1025.34 786.936 1026.03 786.988L1027.69 787.117V787.117C1028.59 787.186 1029.49 787.237 1030.37 787.263C1030.92 787.263 1031.47 787.315 1032.04 787.332C1032.47 787.332 1032.9 787.332 1033.35 787.332C1033.8 787.332 1034.43 787.332 1034.97 787.332C1035.71 787.332 1036.45 787.332 1037.19 787.332H1038.17C1038.91 787.332 1039.65 787.332 1040.38 787.263H1040.44C1040.94 787.263 1041.46 787.263 1041.98 787.194C1042.12 787.203 1042.26 787.203 1042.41 787.194C1042.84 787.194 1043.27 787.194 1043.68 787.134H1043.98L1046.86 786.91C1047.81 786.825 1048.76 786.713 1049.73 786.609L1051.69 786.377C1059.66 785.259 1067.55 783.581 1075.3 781.354C1092.69 776.503 1109.7 769.717 1127.08 764.746C1149.55 758.339 1174.38 755.191 1196.1 763.026V682.42H1009.62ZM1009.62 559.764V678.747H1196.06V559.764H1009.62Z" fill="#236BFE"/>
<path opacity="0.1" fill-rule="evenodd" clip-rule="evenodd" d="M988.78 494.086V556.092H901.762C901.762 555.731 901.822 555.361 901.848 555C901.925 554.011 902.003 553.022 902.089 552.041C902.183 550.889 902.286 549.727 902.398 548.601C902.51 547.474 902.63 546.098 902.759 544.851C902.889 543.603 903.009 542.339 903.155 541.092C903.301 539.845 903.43 538.597 903.585 537.359C903.74 536.12 903.878 534.865 904.041 533.626C904.17 532.594 904.308 531.57 904.445 530.538C904.643 529.085 904.85 527.622 905.073 526.177C905.073 525.962 905.133 525.739 905.168 525.532C906.738 514.954 908.877 504.468 911.576 494.121L988.78 494.086Z" fill="#236BFE"/>
<path opacity="0.1" fill-rule="evenodd" clip-rule="evenodd" d="M901.492 559.775H988.78V678.747H907.883C907.668 679.969 907.461 681.198 907.238 682.428H988.78V778.377C988.634 778.334 988.505 778.283 988.367 778.231C986.062 777.319 983.775 776.356 981.487 775.324L980.025 774.662C977.731 773.578 975.438 772.431 973.144 771.221C972.344 770.8 971.544 770.361 970.753 769.914C958.021 762.782 946.454 753.744 936.454 743.115C936.161 742.831 935.886 742.53 935.594 742.254C934.2 740.741 932.833 739.21 931.508 737.645L930.046 735.924C928.481 734.007 926.967 732.037 925.497 730.042C925.282 729.749 925.075 729.457 924.852 729.181C918.87 720.888 913.904 711.908 910.059 702.434C909.938 702.15 909.835 701.84 909.723 701.573C908.542 698.535 907.496 695.467 906.584 692.371C906.188 691.072 905.81 689.791 905.483 688.44C905.363 688.045 905.259 687.658 905.165 687.271C900.28 668.203 899.703 648.396 899.703 628.726C899.703 626.43 899.703 624.125 899.703 621.845C899.703 613.89 899.798 605.883 899.936 597.884C899.936 595.811 900.022 593.747 900.065 591.666C900.185 586.385 900.357 581.104 900.581 575.823C900.632 574.353 900.701 572.891 900.778 571.429C900.778 570.586 900.821 569.743 900.907 568.9C901.114 565.838 901.286 562.802 901.492 559.775H901.492Z" fill="#236BFE"/>
<path opacity="0.1" fill-rule="evenodd" clip-rule="evenodd" d="M1075.25 448.888V556.092H1009.62V448.888H1018.98V412.591H1057.39V448.888H1075.25Z" fill="#236BFE"/>
<path opacity="0.1" fill-rule="evenodd" clip-rule="evenodd" d="M1009.63 678.737V559.767H1075.25V678.737H1009.63Z" fill="#236BFE"/>
<path opacity="0.1" fill-rule="evenodd" clip-rule="evenodd" d="M1009.62 682.426H1075.25V781.334C1067.51 783.558 1059.62 785.234 1051.64 786.348L1049.68 786.589C1048.72 786.701 1047.77 786.795 1046.82 786.89C1045.87 786.984 1044.89 787.053 1043.94 787.113H1043.64C1043.22 787.113 1042.78 787.165 1042.37 787.173H1041.93C1041.42 787.173 1040.9 787.225 1040.39 787.242V787.242C1039.65 787.285 1038.92 787.294 1038.18 787.303C1037.86 787.303 1037.56 787.303 1037.24 787.303C1036.5 787.303 1035.77 787.303 1035.03 787.303H1033.4C1032.96 787.303 1032.54 787.303 1032.09 787.303L1030.43 787.242C1029.57 787.242 1028.64 787.148 1027.74 787.088V787.088L1026.09 786.967L1024.03 786.778C1022.59 786.649 1021.15 786.485 1019.73 786.288L1018.01 786.047L1017.15 785.926C1015.72 785.703 1014.3 785.462 1012.85 785.187C1011.8 785.006 1010.75 784.782 1009.68 784.568L1009.62 682.426Z" fill="#236BFE"/>
<path opacity="0.1" fill-rule="evenodd" clip-rule="evenodd" d="M1431.4 556.085V436.231H1485.52V556.085H1431.4Z" fill="#236BFE"/>
<path opacity="0.1" fill-rule="evenodd" clip-rule="evenodd" d="M1485.52 559.767V678.744H1216.91V627.426H1359.99V657.699H1431.4V559.767L1485.52 559.767Z" fill="#236BFE"/>
<path opacity="0.1" fill-rule="evenodd" clip-rule="evenodd" d="M1486.38 809.992H1485.52V888.044C1475.83 887.224 1466.17 886.109 1456.53 884.699C1413.16 878.349 1370.89 866.013 1330.91 848.042C1319.37 842.847 1308.06 837.176 1296.99 831.029C1278.49 820.783 1260.77 809.195 1243.97 796.359C1239.75 793.125 1235.58 789.817 1231.47 786.434C1228.63 784.086 1225.8 781.677 1222.93 779.338C1220.95 777.73 1218.94 776.147 1216.91 774.633V682.424H1430.69C1430.54 681.873 1430.39 681.323 1430.24 680.781C1430.4 681.323 1430.56 681.873 1430.7 682.424H1485.52V809.94C1485.81 809.949 1486.09 809.974 1486.38 809.992V809.992Z" fill="#236BFE"/>
<path opacity="0.1" fill-rule="evenodd" clip-rule="evenodd" d="M1626.65 427.306H1591.4V416.347H1607.2V383.701C1608.57 384.2 1609.94 384.713 1611.3 385.241V416.347H1626.65V427.306Z" fill="#236BFE"/>
<path opacity="0.1" fill-rule="evenodd" clip-rule="evenodd" d="M1711.61 556.095H1538.5C1538.5 556.095 1538.5 556.095 1538.56 556.138L1538.48 556.095H1506.36V436.243H1515.46V524.831H1557.05V472.367H1591.4V430.988H1626.66V472.401H1661.01V524.866H1711.61V556.095Z" fill="#236BFE"/>
<path opacity="0.1" fill-rule="evenodd" clip-rule="evenodd" d="M1767.33 818.802L1767.62 724.624H1711.62V682.48H1506.37V889.329C1523.19 890.036 1540.05 889.835 1556.85 888.727H1556.85H1557.15C1565.17 888.222 1573.16 887.488 1581.12 886.525H1581.3C1623.72 881.587 1665.21 870.517 1704.46 853.661M1506.37 559.764V678.747H1711.62V559.764H1506.37Z" fill="#236BFE"/>
<path opacity="0.1" fill-rule="evenodd" clip-rule="evenodd" d="M1792.09 682.426H1839.98C1839.56 706.586 1834.71 730.315 1824.09 752.23C1815.26 770.438 1802.98 786.358 1788.48 800.265V724.578H1792.09L1792.09 682.426Z" fill="#236BFE"/>
<path opacity="0.1" fill-rule="evenodd" clip-rule="evenodd" d="M1840 678.744H1792.1V579.317H1818.02C1831.43 610.665 1839.96 645.065 1840 678.744Z" fill="#236BFE"/>
<path opacity="0.1" fill-rule="evenodd" clip-rule="evenodd" d="M1456.54 507.124V469.55H1485.52V507.124H1456.54Z" fill="#236BFE"/>
<path opacity="0.1" fill-rule="evenodd" clip-rule="evenodd" d="M1456.54 556.092V547.437H1485.52V556.092H1456.54Z" fill="#236BFE"/>
<path opacity="0.1" fill-rule="evenodd" clip-rule="evenodd" d="M1456.54 585.004V559.767H1485.52V585.004H1456.54Z" fill="#236BFE"/>
<path opacity="0.1" fill-rule="evenodd" clip-rule="evenodd" d="M1456.54 662.909V625.325H1485.52V662.909H1456.54Z" fill="#236BFE"/>
<path opacity="0.1" fill-rule="evenodd" clip-rule="evenodd" d="M1456.54 740.796V703.212H1485.52V740.796H1456.54Z" fill="#236BFE"/>
<path opacity="0.1" fill-rule="evenodd" clip-rule="evenodd" d="M1485.52 809.948C1485.81 809.948 1486.09 809.948 1486.38 810H1485.52V818.73H1456.54V781.11H1485.52V809.948Z" fill="#236BFE"/>
<path opacity="0.1" fill-rule="evenodd" clip-rule="evenodd" d="M1485.52 858.973V888.009C1475.83 887.188 1466.17 886.073 1456.54 884.662V858.973H1485.52Z" fill="#236BFE"/>
<path opacity="0.1" fill-rule="evenodd" clip-rule="evenodd" d="M1216.91 678.744V675.982H1341.17V678.744H1216.91Z" fill="#236BFE"/>
<path opacity="0.1" fill-rule="evenodd" clip-rule="evenodd" d="M1216.91 692.997V682.419H1341.17V692.997H1216.91Z" fill="#236BFE"/>
<path opacity="0.1" fill-rule="evenodd" clip-rule="evenodd" d="M1216.91 744.688V727.674H1341.17V744.688H1216.91Z" fill="#236BFE"/>
<path opacity="0.1" fill-rule="evenodd" clip-rule="evenodd" d="M1341.17 779.365V796.38H1243.97C1239.75 793.157 1235.58 789.848 1231.47 786.453C1228.62 784.105 1225.8 781.696 1222.93 779.365L1341.17 779.365Z" fill="#236BFE"/>
<path opacity="0.1" fill-rule="evenodd" clip-rule="evenodd" d="M1341.17 831.054V848.05H1330.9C1319.37 842.849 1308.07 837.175 1296.99 831.028L1341.17 831.054Z" fill="#236BFE"/>
<path opacity="0.1" fill-rule="evenodd" clip-rule="evenodd" d="M1556.86 595.756V571.295H1581.33V595.756H1556.86Z" fill="#236BFE"/>
<path opacity="0.1" fill-rule="evenodd" clip-rule="evenodd" d="M1027.25 481.788V457.327H1051.71V481.788H1027.25Z" fill="#236BFE"/>
<path opacity="0.1" fill-rule="evenodd" clip-rule="evenodd" d="M1027.25 538.602V514.14H1051.71V538.602H1027.25Z" fill="#236BFE"/>
<path opacity="0.1" fill-rule="evenodd" clip-rule="evenodd" d="M1027.25 595.425V570.964H1051.71V595.425H1027.25Z" fill="#236BFE"/>
<path opacity="0.1" fill-rule="evenodd" clip-rule="evenodd" d="M1027.25 652.232V627.77H1051.71V652.232H1027.25Z" fill="#236BFE"/>
<path opacity="0.1" fill-rule="evenodd" clip-rule="evenodd" d="M1027.25 709.045V684.584H1051.71V709.045H1027.25Z" fill="#236BFE"/>
<path opacity="0.1" fill-rule="evenodd" clip-rule="evenodd" d="M1027.25 765.869V741.407H1051.71V765.869H1027.25Z" fill="#236BFE"/>
<path opacity="0.1" fill-rule="evenodd" clip-rule="evenodd" d="M1650.24 595.756V571.295H1674.7V595.756H1650.24Z" fill="#236BFE"/>
<path opacity="0.1" fill-rule="evenodd" clip-rule="evenodd" d="M1556.86 656.095V631.634H1581.33V656.095H1556.86Z" fill="#236BFE"/>
<path opacity="0.1" fill-rule="evenodd" clip-rule="evenodd" d="M1650.24 656.095V631.634H1674.7V656.095H1650.24Z" fill="#236BFE"/>
<path opacity="0.1" fill-rule="evenodd" clip-rule="evenodd" d="M1556.86 716.417V691.956H1581.33V716.417H1556.86Z" fill="#236BFE"/>
<path opacity="0.1" fill-rule="evenodd" clip-rule="evenodd" d="M1650.24 716.417V691.956H1674.7V716.417H1650.24Z" fill="#236BFE"/>
<path opacity="0.1" fill-rule="evenodd" clip-rule="evenodd" d="M1556.86 776.756V752.295H1581.33V776.756H1556.86Z" fill="#236BFE"/>
<path opacity="0.1" fill-rule="evenodd" clip-rule="evenodd" d="M1650.24 776.756V752.295H1674.7V776.756H1650.24Z" fill="#236BFE"/>
<path opacity="0.1" fill-rule="evenodd" clip-rule="evenodd" d="M1556.86 837.085V812.624H1581.33V837.085H1556.86Z" fill="#236BFE"/>
<path opacity="0.1" fill-rule="evenodd" clip-rule="evenodd" d="M1650.24 837.085V812.624H1674.7V837.085H1650.24Z" fill="#236BFE"/>
<path opacity="0.1" fill-rule="evenodd" clip-rule="evenodd" d="M1556.86 888.723V872.956H1581.32V886.479L1556.86 888.723Z" fill="#236BFE"/>
<path opacity="0.1" fill-rule="evenodd" clip-rule="evenodd" d="M988.367 538.632H981.487V526.375H988.367V538.632ZM980.042 538.632H973.161V526.375H980.042V538.632ZM971.716 538.632H964.835V526.375H971.716V538.632ZM963.391 538.632H956.51V526.375H963.391V538.632ZM955.056 538.632H948.176V526.375H955.056V538.632ZM946.722 538.632H939.842V526.375H946.722V538.632ZM938.397 538.632H931.525V526.375H938.405L938.397 538.632ZM930.062 538.632H923.182V526.375H930.062V538.632ZM921.746 538.632H914.865V526.375H921.746V538.632ZM913.411 538.632H906.582V526.375H913.463L913.411 538.632ZM905.069 525.515V539.509H988.78V525.515H905.069Z" fill="#236BFE"/>
<path opacity="0.1" fill-rule="evenodd" clip-rule="evenodd" d="M988.367 579.339H981.487V567.117H988.367V579.339ZM980.042 579.339H973.161V567.117H980.042V579.339ZM971.716 579.339H964.835V567.117H971.716V579.339ZM963.391 579.339H956.51V567.117H963.391V579.339ZM955.056 579.339H948.176V567.117H955.056V579.339ZM946.722 579.339H939.842V567.117H946.722V579.339ZM938.397 579.339H931.525V567.117H938.405L938.397 579.339ZM930.062 579.339H923.182V567.117H930.062V579.339ZM921.746 579.339H914.865V567.117H921.746V579.339ZM913.411 579.339H906.582V567.117H913.463L913.411 579.339ZM905.069 566.232V580.225H988.78V566.232H905.069Z" fill="#236BFE"/>
<path opacity="0.1" fill-rule="evenodd" clip-rule="evenodd" d="M988.367 620.072H981.487V607.842H988.367V620.072ZM980.042 620.072H973.161V607.842H980.042V620.072ZM971.716 620.072H964.835V607.842H971.716V620.072ZM963.391 620.072H956.51V607.842H963.391V620.072ZM955.056 620.072H948.176V607.842H955.056V620.072ZM946.722 620.072H939.842V607.842H946.722V620.072ZM938.397 620.072H931.525V607.842H938.405L938.397 620.072ZM930.062 620.072H923.182V607.842H930.062V620.072ZM921.746 620.072H914.865V607.842H921.746V620.072ZM913.411 620.072H906.582V607.842H913.463L913.411 620.072ZM905.069 606.965V620.984H988.78V606.965H905.069Z" fill="#236BFE"/>
<path opacity="0.1" fill-rule="evenodd" clip-rule="evenodd" d="M988.367 660.806H981.487V648.567H988.367V660.806ZM980.042 660.806H973.161V648.567H980.042V660.806ZM971.716 660.806H964.835V648.567H971.716V660.806ZM963.391 660.806H956.51V648.567H963.391V660.806ZM955.056 660.806H948.176V648.567H955.056V660.806ZM946.722 660.806H939.842V648.567H946.722V660.806ZM938.397 660.806H931.525V648.567H938.405L938.397 660.806ZM930.062 660.806H923.182V648.567H930.062V660.806ZM921.746 660.806H914.865V648.567H921.746V660.806ZM913.411 660.806H906.582V648.567H913.463L913.411 660.806ZM905.069 647.698V661.674H988.78V647.698H905.069Z" fill="#236BFE"/>
<path opacity="0.1" fill-rule="evenodd" clip-rule="evenodd" d="M988.393 701.53H981.512V689.3H988.393V701.53ZM980.068 701.53H973.187V689.3H980.068V701.53ZM971.742 701.53H964.861V689.3H971.742V701.53ZM963.416 701.53H956.536V689.3H963.416V701.53ZM955.082 701.53H948.202V689.3H955.082V701.53ZM946.748 701.53H939.867V689.3H946.748V701.53ZM938.423 701.53H931.525V689.3H938.405L938.423 701.53ZM930.088 701.53H923.208V689.3H930.088V701.53ZM921.771 701.53H914.891V689.3H921.771V701.53ZM905.43 688.423C905.765 689.739 906.144 691.055 906.539 692.353V689.3H913.42V701.53H909.739C909.851 701.814 909.963 702.124 910.074 702.391H988.78V688.423L905.43 688.423Z" fill="#236BFE"/>
<path opacity="0.1" fill-rule="evenodd" clip-rule="evenodd" d="M988.367 742.255H981.487V730.033H988.367V742.255ZM980.042 742.255H973.161V730.033H980.042V742.255ZM971.716 742.255H964.836V730.033H971.716V742.255ZM963.391 742.255H956.51V730.033H963.391V742.255ZM955.056 742.255H948.176V730.033H955.056V742.255ZM946.722 742.255H939.842V730.033H946.722V742.255ZM924.868 729.156C925.083 729.432 925.289 729.741 925.513 730.016H930.063V735.891C930.553 736.476 931.034 737.06 931.533 737.611V729.982H938.414V742.255H935.627C935.902 742.539 936.169 742.84 936.487 743.115H988.806V729.156H924.868Z" fill="#236BFE"/>
<path opacity="0.1" fill-rule="evenodd" clip-rule="evenodd" d="M970.784 769.882C971.567 770.329 972.368 770.742 973.176 771.19V770.759H980.06V774.631L981.522 775.31V770.759H988.406V778.201C988.538 778.267 988.676 778.318 988.819 778.356V769.882L970.784 769.882Z" fill="#236BFE"/>
<path opacity="0.1" fill-rule="evenodd" clip-rule="evenodd" d="M1430.24 680.777C1430.4 681.327 1430.54 681.878 1430.7 682.42V682.42C1430.56 681.878 1430.41 681.327 1430.24 680.777ZM1485.52 809.91V809.91H1486.38H1485.52ZM1538.5 556.07V556.07H1538.55H1538.5ZM1430.24 680.777C1430.4 681.327 1430.54 681.878 1430.7 682.42V682.42C1430.56 681.878 1430.41 681.327 1430.24 680.777ZM1485.52 809.93V809.93H1486.38H1485.52ZM1019.01 427.277V430.95H1057.43V427.277H1019.01ZM1538.5 556.07V556.07H1538.55H1538.5ZM1430.24 680.777C1430.4 681.327 1430.54 681.878 1430.7 682.42V682.42C1430.56 681.878 1430.41 681.327 1430.24 680.777ZM1485.52 809.93V809.93H1486.38H1485.52ZM1538.5 556.09V556.09H1538.55H1538.5Z" fill="#236BFE"/>
<path fill-rule="evenodd" clip-rule="evenodd" d="M1141.45 588.809L1141.6 592.412C1140.74 591.028 1140.12 590.03 1140.12 590.03L1141.45 588.809ZM1286.6 595.44C1286.6 595.44 1283.21 594.967 1283.21 590.03C1283.21 585.093 1280.79 575.873 1280.79 575.873V575.873C1280.79 575.83 1278.69 559.815 1275.79 557.269C1272.89 554.724 1269.17 539.775 1269.17 539.775C1269.17 539.775 1268.53 531.665 1267.23 529.919C1265.93 528.173 1264.18 523.898 1261.59 517.8C1259 511.703 1248.21 507.48 1248.21 507.48C1248.21 507.48 1228.69 496.161 1223.16 492.471V492.471C1222.66 492.168 1222.19 491.813 1221.76 491.413C1220.79 490.149 1216.6 490.123 1216.6 490.123C1216.16 487.354 1215.74 484.171 1215.6 481.29C1215.6 480.981 1215.6 480.671 1215.56 480.361C1221.72 476.716 1226.37 470.969 1228.64 464.175C1228.74 463.848 1228.83 463.504 1228.92 463.177C1229.67 462.931 1230.28 462.381 1230.6 461.663C1231.1 460.554 1231.11 459.255 1231.73 458.223C1232.45 457.002 1233.83 456.348 1234.91 455.428C1237.64 453.105 1238.35 449.192 1238.22 445.631C1238.13 442.75 1237.67 439.843 1237.85 436.979L1237.9 436.256C1237.95 435.826 1238.01 435.396 1238.09 434.983C1238.51 432.85 1239.43 430.838 1239.95 428.722C1240.46 426.606 1240.52 424.224 1239.31 422.401C1237.55 419.726 1233.88 419.192 1230.65 418.917C1227 418.608 1223.73 419.012 1221.39 415.976C1220.29 414.389 1219.06 412.901 1217.71 411.529C1217.23 411.082 1212.55 408.226 1212.55 408.037C1207.98 405.922 1202.8 405.525 1197.97 406.919C1195.54 407.624 1193.26 408.777 1190.8 409.353C1185.49 410.609 1179.38 409.25 1174.88 412.286C1172.36 414.006 1170.86 416.741 1169.45 419.407C1168.3 421.604 1167.14 423.797 1165.96 425.987C1164.06 429.591 1162.12 433.255 1161.32 437.245C1161.15 438.114 1161.05 438.994 1161.01 439.877V439.877V439.92C1161.01 440.239 1161.01 440.557 1161.01 440.875V441.279C1161.01 441.58 1161.01 441.873 1161.06 442.139C1161.11 442.406 1161.11 442.492 1161.13 442.673C1161.16 442.853 1161.2 443.257 1161.25 443.533C1161.3 443.808 1161.41 444.289 1161.51 444.668C1161.55 444.831 1161.61 444.986 1161.66 445.141C1161.75 445.433 1161.85 445.717 1161.97 446.001C1162.03 446.147 1162.09 446.302 1162.15 446.448C1162.28 446.749 1162.44 447.042 1162.59 447.308C1162.66 447.429 1162.71 447.541 1162.78 447.652C1163.02 448.052 1163.29 448.437 1163.57 448.805C1165.41 451.101 1168.12 452.563 1170.13 454.714C1170.13 454.8 1170.13 454.886 1170.13 454.963C1170.13 455.204 1170.13 455.436 1170.13 455.677C1170.34 465.413 1175.36 474.413 1183.53 479.716C1183.53 480.043 1183.57 480.378 1183.59 480.705C1183.76 483.258 1183.72 485.82 1183.49 488.369C1182.78 487.533 1181.73 487.065 1180.64 487.096C1180.27 487.078 1179.9 487.109 1179.54 487.19L1179.46 487.13V487.13V487.207C1177.57 487.672 1175.24 489.641 1173.01 495.241C1173.01 495.241 1166.23 502.878 1161.07 502.56C1155.91 502.242 1142.85 510.507 1142.85 510.507C1142.85 510.507 1130.1 518.781 1127.36 527.21C1125.84 531.989 1124 536.666 1121.88 541.212L1106.12 573.68V573.68L1103.21 599.439C1103.21 599.439 1104.82 610.895 1104.5 612.641C1104.19 614.387 1111.12 630.135 1111.12 630.135C1111.12 630.135 1134.02 670.378 1143.38 672.443L1144.05 671.969C1144.45 672.179 1144.88 672.338 1145.31 672.443L1147.24 671.084C1147.36 672.598 1147.31 674.121 1147.09 675.625C1145.8 679.598 1147.58 705.53 1149.83 710.613C1152.08 715.696 1151.28 782.344 1151.28 782.344L1150.97 788.226C1150.97 788.226 1150.97 788.416 1151.04 788.742L1150.97 790.136L1151.2 790.256C1151.44 792.122 1151.36 794.016 1150.97 795.855C1150.16 798.436 1149.83 805.729 1149.83 805.729C1149.83 805.729 1143.39 846.91 1146.44 855.184C1149.49 863.457 1152.09 872.523 1152.09 872.523C1152.09 872.523 1155.32 882.844 1152.25 884.607C1149.18 886.37 1140.45 889.329 1142.24 893.629C1143.88 897.603 1150.08 908.251 1151 909.807L1150.92 910.624L1149.66 924.325C1149.86 926.134 1150.35 927.9 1151.11 929.555C1152.5 932.539 1155.19 935.635 1160.31 935.3C1161.17 935.24 1162.16 935.137 1163.13 935.007C1172.49 933.752 1184.03 929.572 1184.03 929.572C1183.43 929.191 1182.88 928.738 1182.39 928.221V928.221C1181.46 927.32 1180.94 926.076 1180.96 924.781C1181.09 922.287 1176.42 910.401 1175.26 907.476C1175.08 907.055 1174.99 906.814 1174.99 906.814C1174.99 906.814 1185.63 895.685 1183.86 885.82C1183.86 885.82 1172.08 878.939 1175.96 875.163C1179.84 871.387 1186.77 860.542 1186.77 860.542C1186.77 860.542 1187.09 819.989 1186.77 813.934C1186.44 809.732 1186.64 805.504 1187.36 801.351C1187.49 800.723 1187.65 800.113 1187.81 799.511C1193.18 800.311 1198.59 800.723 1204.01 800.741C1205.99 800.741 1208.01 800.741 1210.04 800.62C1210.04 801.194 1210.06 801.813 1210.11 802.478C1210.56 812.524 1211.39 830.138 1212.07 836.683C1213.04 846.067 1218.36 871.353 1218.36 871.353C1218.36 871.353 1208.2 877.872 1220.13 893.939C1220.13 893.939 1220.13 899.762 1219.34 900.604V900.604C1218.5 903.36 1217.82 906.163 1217.3 908.999C1216.8 912.026 1216.6 915.088 1217.41 916.679C1219.34 920.481 1230.95 920.171 1230.95 920.171V920.171L1231.24 920.119C1235.66 919.662 1240.09 920.997 1243.53 923.826C1247.94 927.37 1264.68 925.813 1273.75 924.687C1277.3 924.239 1279.68 923.826 1279.68 923.826C1279.79 923.424 1279.83 923.005 1279.8 922.588V922.588C1279.7 920.36 1277.96 915.475 1266.12 911.114C1266.12 911.114 1254.99 903.632 1255.15 897.112H1254.91H1253.62C1254.56 897.061 1255.16 897.112 1255.16 897.112C1255.16 897.112 1250.8 881.201 1252.58 879.911C1254.36 878.621 1249.03 860.989 1249.03 860.989C1249.03 860.989 1245.98 831.402 1245.81 829.33C1245.82 827.551 1246.09 825.783 1246.61 824.083L1245.81 807.862C1245.81 807.862 1245.66 802.469 1245.81 800.715C1245.79 799.192 1245.67 797.672 1245.44 796.165C1245.37 795.563 1245.29 794.935 1245.2 794.316C1249.38 793.258 1252.08 792.277 1252.08 792.277L1251.6 735.813C1255.15 728.933 1255.8 713.838 1255.78 703.13C1255.78 696.249 1255.47 691.158 1255.47 691.158L1260.32 683.254C1260.32 683.254 1261.43 673.793 1259.66 671.72C1258.88 670.783 1259.23 669.811 1259.88 669.011C1260.21 668.745 1260.57 668.504 1260.93 668.288C1260.93 668.288 1260.88 668.211 1260.82 668.099C1261.16 667.817 1261.52 667.561 1261.9 667.334C1261.9 667.334 1260.18 664.667 1261.72 663.541C1263.16 664.521 1264.45 665.261 1265.43 665.863C1265.36 666.491 1265.3 666.852 1265.3 666.852L1265.71 665.992C1266.65 666.525 1267.23 666.852 1267.23 666.852C1267.23 666.852 1274.82 651.741 1274.65 649.513C1274.49 647.285 1279.81 637.902 1279.81 637.902C1279.81 637.902 1280.46 632.974 1283.37 630.909C1286.27 628.845 1285.62 613.888 1285.62 613.888C1285.62 613.888 1286.43 606.096 1288.36 602.914C1290.3 599.732 1286.6 595.44 1286.6 595.44L1286.6 595.44Z" fill="url(#paint0_linear_0:169)"/>
<path fill-rule="evenodd" clip-rule="evenodd" d="M1267.65 660.321L1265.79 668.234C1265.79 668.234 1250.91 660.64 1248.22 650.99C1245.54 641.34 1252.71 637.676 1252.71 637.676L1266.58 643.551L1267.65 660.321Z" fill="white"/>
<path opacity="0.1" fill-rule="evenodd" clip-rule="evenodd" d="M1267.65 660.321L1265.79 668.234C1265.79 668.234 1250.91 660.64 1248.22 650.99C1245.54 641.34 1252.71 637.676 1252.71 637.676L1266.58 643.551L1267.65 660.321Z" fill="black"/>
<path fill-rule="evenodd" clip-rule="evenodd" d="M1184.14 929.625C1184.14 929.625 1170.38 934.683 1160.92 935.319C1155.9 935.655 1153.26 932.575 1151.9 929.608C1151.16 927.959 1150.68 926.203 1150.48 924.405L1151.71 910.772L1152.36 903.512L1172.46 898.291L1175.31 906.996L1175.57 907.658C1176.72 910.565 1181.3 922.392 1181.16 924.86C1181.15 926.138 1181.66 927.364 1182.57 928.258C1183.03 928.778 1183.56 929.238 1184.14 929.625Z" fill="white"/>
<path fill-rule="evenodd" clip-rule="evenodd" d="M1278.13 922.694C1278.17 923.108 1278.13 923.525 1278.01 923.924C1278.01 923.924 1248.58 928.836 1242.56 923.924C1239.13 921.023 1234.63 919.704 1230.18 920.294C1230.18 920.294 1218.79 920.604 1216.89 916.853C1216.1 915.279 1216.31 912.225 1216.8 909.214C1217.3 906.393 1217.96 903.603 1218.79 900.861L1219.25 900.499L1221.96 898.323L1253.68 897.385H1253.92C1253.76 903.872 1264.68 911.313 1264.68 911.313C1276.29 915.614 1278 920.475 1278.13 922.694H1278.13Z" fill="white"/>
<path opacity="0.1" fill-rule="evenodd" clip-rule="evenodd" d="M1278.13 922.695C1278.16 923.109 1278.12 923.526 1278 923.925C1278 923.925 1248.58 928.836 1242.56 923.925C1239.13 921.026 1234.64 919.708 1230.18 920.295C1230.18 920.295 1218.79 920.605 1216.89 916.855C1216.1 915.272 1216.3 912.228 1216.79 909.217C1221.18 909.656 1228.1 910.749 1230.82 913.354C1234.93 917.319 1241.9 921.276 1246.17 921.586C1249.52 921.801 1269.53 922.437 1278.13 922.695Z" fill="black"/>
<path opacity="0.1" fill-rule="evenodd" clip-rule="evenodd" d="M1184.14 929.623C1184.14 929.623 1170.38 934.683 1160.92 935.319C1155.9 935.655 1153.26 932.574 1151.91 929.597C1155.41 930.776 1160.26 932.015 1162.82 930.879C1165.85 929.537 1176.58 928.668 1182.6 928.298C1183.06 928.8 1183.57 929.245 1184.14 929.623Z" fill="black"/>
<path fill-rule="evenodd" clip-rule="evenodd" d="M1204.56 522.075C1193.2 517.662 1178.59 503.084 1182.24 496.273C1183.05 494.554 1183.53 492.698 1183.66 490.803C1183.9 488.229 1183.93 485.641 1183.76 483.062C1183.51 478.838 1183 474.634 1182.24 470.471C1182.24 470.471 1217.69 471.271 1215.63 476.491C1215.03 478.022 1214.93 480.68 1215.09 483.655C1215.26 486.631 1215.69 489.994 1216.13 492.841C1216.75 496.746 1217.37 499.721 1217.37 499.721C1217.37 499.721 1215.21 502.758 1213.93 502.921C1212.66 503.084 1220.85 528.362 1204.56 522.075V522.075Z" fill="#CF6F80"/>
<path opacity="0.1" fill-rule="evenodd" clip-rule="evenodd" d="M1175.54 907.654L1175.28 907.947C1164.68 895.136 1151.87 911.102 1151.87 911.102L1151.68 910.767L1152.33 903.51L1172.43 898.291L1175.28 906.992L1175.54 907.654Z" fill="black"/>
<path opacity="0.1" fill-rule="evenodd" clip-rule="evenodd" d="M1253.92 898.292C1253.92 898.292 1246.18 898.129 1242.05 901.772C1237.92 905.414 1217.97 902.562 1218.83 901.772C1219.09 901.38 1219.24 900.931 1219.28 900.466L1221.99 898.292L1253.71 897.356C1253.83 897.932 1253.92 898.292 1253.92 898.292Z" fill="black"/>
<path fill-rule="evenodd" clip-rule="evenodd" d="M1188.73 797.65C1188.15 799.075 1187.72 800.553 1187.42 802.062C1186.71 806.196 1186.51 810.402 1186.83 814.585C1187.15 820.606 1186.83 860.953 1186.83 860.953C1186.83 860.953 1180.03 871.713 1176.24 875.506C1172.44 879.299 1183.98 886.111 1183.98 886.111C1185.7 895.916 1175.27 906.995 1175.27 906.995C1164.68 894.179 1151.86 910.16 1151.86 910.16C1151.86 910.16 1144.9 898.118 1143.16 893.818C1141.42 889.517 1149.96 886.541 1152.96 884.795C1155.97 883.049 1152.82 872.754 1152.82 872.754C1152.82 872.754 1150.28 863.731 1147.27 855.5C1144.26 847.269 1150.59 806.294 1150.59 806.294C1150.59 806.294 1150.92 799.017 1151.7 796.48C1152.09 794.649 1152.17 792.764 1151.93 790.907C1151.88 790.279 1151.82 789.754 1151.78 789.401C1151.73 789.049 1151.7 788.885 1151.7 788.885L1151.82 788.679L1156.12 780.663C1156.12 780.663 1190.79 792.601 1188.73 797.65H1188.73Z" fill="#236BFE"/>
<path fill-rule="evenodd" clip-rule="evenodd" d="M1253.92 897.342C1253.92 897.342 1246.18 897.179 1242.05 900.782C1237.92 904.386 1217.97 901.573 1218.83 900.782C1219.69 899.991 1219.62 894.134 1219.62 894.134C1207.92 878.154 1217.9 871.669 1217.9 871.669C1217.9 871.669 1212.68 846.512 1211.73 837.18C1211.07 830.661 1210.25 813.141 1209.81 803.138C1209.62 798.838 1209.51 795.879 1209.51 795.879L1219.07 793.953L1220.3 793.703L1243.37 789.076C1243.37 789.076 1244 793.376 1244.43 796.894C1244.65 798.396 1244.77 799.91 1244.8 801.427C1244.64 803.147 1244.8 808.531 1244.8 808.531L1245.58 824.674C1245.07 826.368 1244.8 828.126 1244.8 829.895C1244.95 831.951 1247.95 861.382 1247.95 861.382C1247.95 861.382 1253.17 878.945 1251.39 880.209C1249.61 881.474 1253.92 897.342 1253.92 897.342V897.342Z" fill="#236BFE"/>
<path opacity="0.1" fill-rule="evenodd" clip-rule="evenodd" d="M1215.63 476.49C1215.03 478.021 1214.93 480.678 1215.09 483.654C1205.41 489.487 1193.23 489.259 1183.76 483.069C1183.51 478.843 1183 474.636 1182.24 470.471C1182.24 470.471 1217.69 471.253 1215.63 476.49Z" fill="black"/>
<path fill-rule="evenodd" clip-rule="evenodd" d="M1229.33 457.483C1229.33 460.582 1228.85 463.662 1227.88 466.608C1223.43 480.233 1209.81 488.672 1195.63 486.592C1181.45 484.512 1170.83 472.517 1170.48 458.188C1170.48 457.947 1170.48 457.724 1170.48 457.483C1170.48 441.229 1183.65 428.052 1199.91 428.052C1216.16 428.052 1229.34 441.229 1229.34 457.483H1229.33Z" fill="#CF6F80"/>
<path opacity="0.1" fill-rule="evenodd" clip-rule="evenodd" d="M1204.56 522.075C1193.2 517.663 1178.59 503.086 1182.24 496.275C1183.05 494.556 1183.53 492.701 1183.66 490.805L1199.21 503.576L1208.82 511.463L1216.13 492.852C1216.75 496.757 1217.37 499.732 1217.37 499.732C1217.37 499.732 1215.21 502.768 1213.93 502.931C1212.66 503.095 1220.85 528.362 1204.56 522.075Z" fill="black"/>
<path fill-rule="evenodd" clip-rule="evenodd" d="M1244.75 578.519L1231.77 796.554L1214.84 797.663L1171.02 671.237L1178.21 521.142L1179.72 489.43L1199.21 505.437L1208.83 513.324L1216.36 494.169L1230.35 506.365L1244.75 578.519Z" fill="#236BFE"/>
<path opacity="0.1" fill-rule="evenodd" clip-rule="evenodd" d="M1188.73 797.648C1188.15 799.073 1187.72 800.551 1187.42 802.06C1175.11 800.159 1163.15 796.422 1151.94 790.974L1151.71 790.853L1151.79 789.469L1151.83 788.746L1156.13 780.73C1156.13 780.73 1190.79 792.599 1188.73 797.648V797.648Z" fill="black"/>
<path opacity="0.1" fill-rule="evenodd" clip-rule="evenodd" d="M1219.28 802.102C1216.13 802.638 1212.95 803 1209.76 803.187C1209.57 798.883 1209.46 795.923 1209.46 795.923L1219.03 793.995L1219.28 802.102Z" fill="black"/>
<path opacity="0.1" fill-rule="evenodd" clip-rule="evenodd" d="M1244.38 796.939C1238.27 798.53 1228.83 800.319 1220.38 799.201L1220.26 793.749L1243.32 789.122C1243.32 789.122 1243.95 793.379 1244.38 796.939Z" fill="black"/>
<path opacity="0.1" fill-rule="evenodd" clip-rule="evenodd" d="M1220.22 800.202C1184.95 806.223 1152.66 788.961 1152.66 788.961L1152.97 783.112C1152.97 783.112 1153.77 716.807 1151.55 711.723C1149.33 706.64 1147.6 680.863 1148.86 676.907C1150.11 672.95 1144.27 613.62 1144.27 613.62L1143.33 589.537L1108.7 575.509L1124.18 543.238C1126.27 538.714 1128.07 534.06 1129.57 529.305C1132.26 520.927 1144.76 512.696 1144.76 512.696C1144.76 512.696 1157.57 504.474 1162.64 504.783C1167.7 505.093 1174.34 497.507 1174.34 497.507C1179.24 485.009 1183.68 490.669 1183.68 490.669C1183.68 491.262 1183.68 490.669 1183.44 492.518C1181.72 506.237 1211.26 549.586 1211.68 550.351V550.351L1214.49 618.867L1217.34 705.574L1220.22 800.202Z" fill="black"/>
<path fill-rule="evenodd" clip-rule="evenodd" d="M1219.28 800.202C1184.01 806.223 1151.71 788.961 1151.71 788.961L1152.02 783.112C1152.02 783.112 1152.82 716.809 1150.6 711.726C1148.37 706.643 1146.65 680.866 1147.91 676.91C1149.18 672.954 1143.33 613.625 1143.33 613.625L1142.37 589.543L1107.73 575.464L1123.21 543.194C1125.3 538.667 1127.09 534.014 1128.59 529.26C1131.28 520.883 1143.78 512.652 1143.78 512.652C1143.78 512.652 1156.6 504.43 1161.66 504.74C1166.71 505.049 1173.36 497.463 1173.36 497.463C1178.27 484.966 1183.68 490.626 1183.68 490.626C1183.68 491.219 1183.17 491.486 1183.44 492.475C1187.23 505.78 1210.31 549.541 1210.73 550.306V550.306L1213.58 618.82L1216.43 705.525L1219.28 800.202Z" fill="white"/>
<path opacity="0.1" fill-rule="evenodd" clip-rule="evenodd" d="M1209.77 552.25C1205.97 550.668 1185.89 527.73 1185.89 527.73V522.509C1185.16 520.789 1180.81 521.838 1177.29 523.042L1178.8 491.332L1180.52 492.759C1184.29 506.056 1209.33 551.485 1209.77 552.25H1209.77Z" fill="black"/>
<path fill-rule="evenodd" clip-rule="evenodd" d="M1210.73 550.359C1206.92 548.776 1186.83 525.834 1186.83 525.834V520.613C1186.1 518.892 1181.76 519.942 1178.23 521.146L1179.75 489.43L1181.47 490.858C1185.25 504.157 1210.31 549.602 1210.73 550.359Z" fill="white"/>
<path opacity="0.1" fill-rule="evenodd" clip-rule="evenodd" d="M1152.66 664.758C1153.14 664.758 1177.18 662.23 1177.18 662.23C1177.18 662.23 1191.74 690.862 1190.79 697.828C1189.83 704.795 1188.11 710.962 1182.25 709.87C1176.39 708.777 1150.73 710.73 1150.73 710.73L1152.66 664.758Z" fill="black"/>
<path fill-rule="evenodd" clip-rule="evenodd" d="M1151.7 662.857C1152.18 662.857 1176.22 660.328 1176.22 660.328C1176.22 660.328 1190.77 688.969 1189.83 695.927C1188.88 702.885 1187.14 709.06 1181.29 707.968C1175.44 706.876 1149.77 708.828 1149.77 708.828L1151.7 662.857Z" fill="white"/>
<path fill-rule="evenodd" clip-rule="evenodd" d="M1169.83 649.409C1169.83 649.409 1191.9 661.271 1192.37 664.893C1192.85 668.514 1181.14 663.31 1178.61 662.682C1176.94 662.281 1175.25 662.016 1173.54 661.891L1156.67 662.347L1169.83 649.409Z" fill="#CF6F80"/>
<path opacity="0.1" fill-rule="evenodd" clip-rule="evenodd" d="M1201.29 551.415C1201.29 550.131 1202.33 549.09 1203.61 549.09C1204.89 549.09 1205.94 550.131 1205.94 551.415C1205.94 552.698 1204.89 553.739 1203.61 553.739C1202.33 553.739 1201.29 552.698 1201.29 551.415Z" fill="black"/>
<path fill-rule="evenodd" clip-rule="evenodd" d="M1201.29 550.468C1201.29 549.187 1202.33 548.148 1203.61 548.148C1204.89 548.148 1205.94 549.187 1205.94 550.468C1205.94 551.749 1204.89 552.787 1203.61 552.787C1202.33 552.787 1201.29 551.749 1201.29 550.468Z" fill="#3F3D56"/>
<path opacity="0.1" fill-rule="evenodd" clip-rule="evenodd" d="M1205.57 651.937C1205.57 650.653 1206.6 649.612 1207.89 649.612C1209.17 649.612 1210.2 650.653 1210.2 651.937C1210.2 653.221 1209.17 654.261 1207.89 654.261C1206.6 654.261 1205.57 653.221 1205.57 651.937Z" fill="black"/>
<path fill-rule="evenodd" clip-rule="evenodd" d="M1205.57 650.982C1205.57 649.701 1206.6 648.663 1207.89 648.663C1209.17 648.663 1210.2 649.701 1210.2 650.982C1210.2 652.263 1209.17 653.302 1207.89 653.302C1206.6 653.302 1205.57 652.263 1205.57 650.982Z" fill="#3F3D56"/>
<path opacity="0.1" fill-rule="evenodd" clip-rule="evenodd" d="M1203.6 601.676C1203.6 600.395 1204.64 599.356 1205.92 599.356C1207.2 599.356 1208.24 600.395 1208.24 601.676C1208.24 602.957 1207.2 603.995 1205.92 603.995C1204.64 603.995 1203.6 602.957 1203.6 601.676Z" fill="black"/>
<path fill-rule="evenodd" clip-rule="evenodd" d="M1203.6 600.729C1203.6 599.445 1204.64 598.404 1205.92 598.404C1207.2 598.404 1208.24 599.445 1208.24 600.729C1208.24 602.012 1207.2 603.053 1205.92 603.053C1204.64 603.053 1203.6 602.012 1203.6 600.729Z" fill="#3F3D56"/>
<path fill-rule="evenodd" clip-rule="evenodd" d="M1259.45 661.411C1259.45 661.411 1261.04 663.785 1259.45 664.894C1257.87 666.004 1259.61 668.687 1259.61 668.687C1259.61 668.687 1255.66 671.001 1257.4 673.082C1259.14 675.164 1258.04 684.564 1258.04 684.564L1253.29 692.425C1253.29 692.425 1253.57 697.491 1253.59 704.338C1253.59 715.02 1252.96 730.037 1249.49 736.884L1249.97 793.056C1249.97 793.056 1233.35 799.128 1219.43 797.279L1217.37 707.142C1217.37 707.142 1220.38 656.026 1221.49 646.221C1222.14 641.131 1222.4 635.999 1222.28 630.869C1222.28 630.869 1221.81 615.525 1220.21 608.403C1220.21 608.403 1218.49 577.552 1218.32 569.011C1218.24 564.926 1218.46 553.005 1218.7 541.669C1218.97 529.275 1219.27 517.586 1219.27 517.586L1216.13 492.747C1216.13 492.747 1219.27 492.429 1220.21 493.693C1220.64 494.089 1221.1 494.443 1221.59 494.751V494.751C1227.01 498.415 1246.15 509.682 1246.15 509.682C1246.15 509.682 1256.75 513.897 1259.28 519.934C1261.82 525.972 1263.58 530.256 1264.81 531.976C1266.04 533.696 1266.71 541.781 1266.71 541.781C1266.71 541.781 1270.36 556.66 1273.21 559.18C1276.05 561.7 1278.13 577.733 1278.13 577.733L1252.98 597.515C1252.98 597.515 1250.77 630.422 1250.3 631.695C1249.82 632.967 1259.45 661.411 1259.45 661.411L1259.45 661.411Z" fill="white"/>
<path fill-rule="evenodd" clip-rule="evenodd" d="M1260.41 661.407C1260.41 661.407 1261.98 663.781 1260.41 664.89C1258.83 666 1260.55 668.683 1260.55 668.683C1260.55 668.683 1256.63 671.023 1258.35 673.104C1260.07 675.185 1258.99 684.586 1258.99 684.586L1254.24 692.447C1254.24 692.447 1254.53 697.513 1254.55 704.36C1254.55 715.042 1253.92 730.059 1250.45 736.905L1250.92 793.078C1250.92 793.078 1234.27 799.15 1220.38 797.301L1218.32 707.164C1218.32 707.164 1221.33 656.048 1222.44 646.243C1223.09 641.153 1223.35 636.021 1223.22 630.891C1223.22 630.891 1222.75 615.547 1221.17 608.425C1221.17 608.425 1219.45 577.574 1219.27 569.033C1219.19 564.948 1219.41 553.027 1219.65 541.691C1219.91 529.297 1220.21 517.608 1220.21 517.608L1216.07 492.434C1216.07 492.434 1220.21 492.434 1221.17 493.715C1221.59 494.116 1222.05 494.47 1222.54 494.773V494.773C1227.96 498.437 1247.11 509.704 1247.11 509.704C1247.11 509.704 1257.7 513.919 1260.24 519.956C1262.77 525.994 1264.54 530.277 1265.77 531.998C1267.01 533.718 1267.67 541.803 1267.67 541.803C1267.67 541.803 1271.31 556.682 1274.16 559.202C1277.01 561.722 1279.06 577.72 1279.06 577.72L1253.91 597.502C1253.91 597.502 1251.7 630.409 1251.22 631.682C1250.73 632.955 1260.41 661.407 1260.41 661.407V661.407Z" fill="white"/>
<path opacity="0.1" fill-rule="evenodd" clip-rule="evenodd" d="M1230.28 524.912L1232.55 531.534L1220.6 543.574C1220.86 531.19 1221.16 519.493 1221.16 519.493L1217.02 494.321C1217.02 494.321 1221.16 494.321 1222.12 495.602C1222.54 496.002 1223 496.353 1223.5 496.651V496.651L1233.66 525.978L1230.28 524.912Z" fill="black"/>
<path fill-rule="evenodd" clip-rule="evenodd" d="M1229.32 523.01L1231.6 529.632L1219.65 541.672C1219.92 529.28 1220.22 517.592 1220.22 517.592L1216.07 492.419C1216.07 492.419 1220.22 492.419 1221.17 493.7C1221.59 494.099 1222.05 494.453 1222.54 494.758V494.758L1232.71 524.076L1229.32 523.01Z" fill="white"/>
<path opacity="0.1" fill-rule="evenodd" clip-rule="evenodd" d="M1229.33 457.486C1229.33 460.585 1228.85 463.666 1227.88 466.612C1227.55 466.663 1227.22 466.579 1226.95 466.38C1226.73 458.639 1222.92 451.37 1218.23 445.186C1216.92 443.319 1215.32 441.665 1213.5 440.283C1211.66 438.902 1209.38 438.255 1207.09 438.469C1204.5 438.821 1202.23 440.576 1199.62 440.8C1196.18 441.083 1193.1 438.701 1189.69 438.58C1186.88 438.607 1184.22 439.842 1182.38 441.969C1180.59 444.092 1179.26 446.564 1178.47 449.229C1177.12 453.27 1176.38 457.492 1176.29 461.752C1176.24 464.161 1176.01 467.18 1173.77 468.057C1174.11 464.476 1172.94 460.916 1170.53 458.243L1170.48 458.191C1170.48 457.95 1170.48 457.727 1170.48 457.486C1170.48 441.23 1183.65 428.052 1199.91 428.052C1216.16 428.052 1229.34 441.23 1229.34 457.486H1229.33Z" fill="black"/>
<path fill-rule="evenodd" clip-rule="evenodd" d="M1212.09 410.753C1207.62 408.65 1202.54 408.253 1197.8 409.635C1195.41 410.34 1193.17 411.484 1190.75 412.06C1185.59 413.308 1179.57 411.957 1175.14 414.976C1172.68 416.696 1171.2 419.414 1169.83 422.055L1166.39 428.609C1164.51 432.196 1162.62 435.843 1161.84 439.791C1161.06 443.739 1161.53 448.16 1164.03 451.334C1165.85 453.648 1168.55 455.102 1170.52 457.278C1172.92 459.954 1174.09 463.507 1173.76 467.083C1176 466.223 1176.22 463.195 1176.27 460.787C1176.36 456.527 1177.1 452.305 1178.45 448.263C1179.24 445.598 1180.57 443.125 1182.37 441.004C1184.2 438.878 1186.86 437.644 1189.67 437.615C1193.11 437.735 1196.2 440.109 1199.6 439.826C1202.18 439.61 1204.47 437.847 1207.07 437.503C1209.36 437.286 1211.65 437.934 1213.48 439.318C1215.3 440.698 1216.89 442.352 1218.2 444.221C1222.9 450.405 1226.71 457.656 1226.93 465.415C1227.91 466.129 1229.31 465.2 1229.79 464.099C1230.27 462.998 1230.29 461.707 1230.9 460.658C1231.6 459.445 1232.95 458.8 1234.01 457.888C1236.69 455.575 1237.37 451.678 1237.26 448.143C1237.16 444.608 1236.47 441.021 1237.14 437.546C1237.55 435.413 1238.46 433.418 1238.96 431.31C1239.46 429.203 1239.52 426.837 1238.34 425.023C1236.62 422.356 1233 421.831 1229.84 421.582C1226.25 421.272 1223.05 421.668 1220.76 418.649C1219.68 417.074 1218.48 415.594 1217.15 414.228C1216.69 413.781 1212.09 410.942 1212.09 410.753L1212.09 410.753Z" fill="#512E4E"/>
<path opacity="0.1" fill-rule="evenodd" clip-rule="evenodd" d="M1118.61 592.129L1109.63 575.513L1106.78 601.151C1106.78 601.151 1108.36 612.538 1108.04 614.283C1107.72 616.029 1114.53 631.682 1114.53 631.682C1114.53 631.682 1137 671.707 1146.18 673.771L1177.18 651.617L1168.96 641.176C1168.96 641.176 1166.11 640.067 1165.4 641.176C1165.4 641.176 1150.13 614.911 1148.55 613.011C1146.97 611.11 1147.28 607.317 1147.28 607.317C1147.28 607.317 1144.9 604.789 1145.69 602.415C1146.49 600.041 1141.11 591.811 1141.11 591.811L1146.01 587.227L1118.61 592.129Z" fill="black"/>
<path fill-rule="evenodd" clip-rule="evenodd" d="M1110.1 573.619L1107.72 575.511L1104.88 601.149C1104.88 601.149 1106.46 612.536 1106.14 614.282C1105.82 616.028 1112.63 631.681 1112.63 631.681C1112.63 631.681 1135.1 671.707 1144.27 673.771L1175.29 651.617L1167.06 641.176C1167.06 641.176 1164.21 640.066 1163.5 641.176C1163.5 641.176 1148.23 614.91 1146.65 613.009C1145.07 611.109 1145.38 607.316 1145.38 607.316C1145.38 607.316 1143.01 604.787 1143.8 602.413C1144.59 600.04 1139.21 591.809 1139.21 591.809L1144.11 587.225L1110.1 573.619Z" fill="white"/>
<path opacity="0.1" fill-rule="evenodd" clip-rule="evenodd" d="M1257.4 674.059C1259.12 676.149 1258.04 685.532 1258.04 685.532L1253.29 693.392C1253.29 693.392 1253.57 698.466 1253.59 705.303L1245.61 707.797C1244.14 708.254 1242.55 707.974 1241.33 707.047C1240.1 706.12 1239.41 704.659 1239.45 703.127L1240.83 658.743L1259.46 665.864C1257.87 666.965 1259.61 669.665 1259.61 669.665C1259.61 669.665 1255.66 671.97 1257.4 674.059L1257.4 674.059Z" fill="black"/>
<path fill-rule="evenodd" clip-rule="evenodd" d="M1258.36 673.101C1260.08 675.191 1259 684.583 1259 684.583L1254.25 692.444C1254.25 692.444 1254.53 697.51 1254.56 704.357L1246.43 706.894C1245 707.339 1243.43 707.065 1242.24 706.156C1241.04 705.248 1240.36 703.818 1240.41 702.318L1241.79 657.791L1260.42 664.913C1258.83 666.013 1260.57 668.705 1260.57 668.705C1260.57 668.705 1256.64 671.019 1258.36 673.101H1258.36Z" fill="white"/>
<path fill-rule="evenodd" clip-rule="evenodd" d="M1264.52 651.947C1264.52 651.947 1263.26 660.021 1260.09 660.494C1256.93 660.967 1255.51 673.556 1252.36 673.109C1249.2 672.662 1251.29 661.406 1251.4 659.221C1251.51 657.037 1247.96 647.991 1250.62 645.936C1253.28 643.881 1261.69 645.936 1261.69 645.936L1264.52 651.947Z" fill="#CF6F80"/>
<path opacity="0.1" fill-rule="evenodd" clip-rule="evenodd" d="M1271.25 589.758L1277.22 577.717C1277.22 577.717 1279.6 586.894 1279.6 591.796C1279.6 596.698 1282.92 597.18 1282.92 597.18C1282.92 597.18 1286.55 601.48 1284.64 604.611C1282.72 607.741 1281.94 615.533 1281.94 615.533C1281.94 615.533 1282.57 630.403 1279.72 632.459C1276.88 634.514 1276.28 639.425 1276.28 639.425C1276.28 639.425 1271.06 648.757 1271.22 650.975C1271.38 653.194 1263.94 668.219 1263.94 668.219C1263.94 668.219 1267.58 649.548 1246.38 641.481C1246.38 641.481 1246.22 635.142 1247.8 633.405C1249.38 631.668 1251.85 630.876 1250.3 622.095C1248.75 613.314 1249.85 602.822 1249.85 600.715C1249.85 598.608 1254.6 585.466 1254.6 585.466L1271.25 589.758Z" fill="black"/>
<path fill-rule="evenodd" clip-rule="evenodd" d="M1273.83 575.997L1279.05 577.717C1279.05 577.717 1281.43 586.894 1281.43 591.796C1281.43 596.698 1284.75 597.18 1284.75 597.18C1284.75 597.18 1288.39 601.48 1286.47 604.61C1284.55 607.741 1283.79 615.533 1283.79 615.533C1283.79 615.533 1284.41 630.403 1281.57 632.459C1278.72 634.514 1278.08 639.425 1278.08 639.425C1278.08 639.425 1272.86 648.756 1273.03 650.975C1273.19 653.194 1265.74 668.219 1265.74 668.219C1265.74 668.219 1269.39 649.548 1248.18 641.48C1248.18 641.48 1248.02 635.142 1249.6 633.405C1251.19 631.667 1253.65 630.876 1252.11 622.095C1250.56 613.314 1251.66 602.822 1251.66 600.714C1251.66 598.607 1256.41 585.466 1256.41 585.466L1273.83 575.997Z" fill="white"/>
<path opacity="0.1" fill-rule="evenodd" clip-rule="evenodd" d="M1158.72 887.511C1158.72 887.511 1166.48 883.368 1171.57 886.378C1176.66 889.388 1158.72 887.511 1158.72 887.511Z" fill="black"/>
<path opacity="0.1" fill-rule="evenodd" clip-rule="evenodd" d="M1223.27 871.935C1223.27 871.935 1230.03 871.229 1235.7 876.186C1241.37 881.144 1223.27 871.935 1223.27 871.935Z" fill="black"/>
<g opacity="0.1">
<path fill-rule="evenodd" clip-rule="evenodd" d="M1234.03 456.001C1232.97 456.913 1231.61 457.567 1230.91 458.779C1230.31 459.82 1230.29 461.102 1229.81 462.22C1229.33 463.338 1227.93 464.249 1226.95 463.544C1226.73 455.804 1222.91 448.536 1218.22 442.343C1216.91 440.475 1215.32 438.821 1213.5 437.441C1211.66 436.057 1209.37 435.41 1207.08 435.626C1204.5 435.979 1202.23 437.733 1199.62 437.948C1196.18 438.241 1193.09 435.858 1189.68 435.738C1186.87 435.766 1184.21 437.004 1182.39 439.135C1180.59 441.253 1179.26 443.723 1178.47 446.386C1177.12 450.427 1176.38 454.648 1176.29 458.908C1176.24 461.308 1176.01 464.301 1173.79 465.196C1173.84 465.831 1173.84 466.469 1173.79 467.105C1176.03 466.245 1176.25 463.217 1176.3 460.809C1176.4 456.549 1177.14 452.327 1178.49 448.286C1179.27 445.621 1180.61 443.148 1182.4 441.027C1184.23 438.902 1186.89 437.668 1189.7 437.639C1193.14 437.759 1196.23 440.133 1199.64 439.849C1202.22 439.634 1204.51 437.871 1207.09 437.527C1209.39 437.311 1211.68 437.958 1213.52 439.342C1215.34 440.721 1216.93 442.375 1218.24 444.244C1222.93 450.428 1226.75 457.678 1226.97 465.436C1227.94 466.15 1229.34 465.221 1229.83 464.12C1230.31 463.02 1230.32 461.729 1230.93 460.68C1231.63 459.467 1232.99 458.822 1234.05 457.911C1236.73 455.597 1237.4 451.701 1237.3 448.166C1237.3 448.054 1237.3 447.942 1237.3 447.839C1237.14 450.901 1236.32 454.023 1234.03 456.001V456.001Z" fill="black"/>
<path fill-rule="evenodd" clip-rule="evenodd" d="M1170.54 455.393C1168.56 453.218 1165.86 451.765 1164.04 449.461C1162.52 447.421 1161.64 444.965 1161.54 442.419C1161.27 445.601 1162.16 448.774 1164.04 451.352C1165.86 453.665 1168.56 455.118 1170.54 457.293C1172.44 459.421 1173.58 462.117 1173.78 464.962C1174.05 461.464 1172.88 458.009 1170.54 455.393V455.393Z" fill="black"/>
<path fill-rule="evenodd" clip-rule="evenodd" d="M1238.98 429.432C1238.47 431.539 1237.56 433.542 1237.15 435.667C1236.9 437.086 1236.81 438.528 1236.88 439.967C1236.91 439.147 1237 438.331 1237.15 437.524C1237.56 435.391 1238.47 433.396 1238.98 431.289C1239.28 430.127 1239.37 428.923 1239.26 427.729C1239.21 428.303 1239.12 428.872 1238.98 429.432Z" fill="black"/>
</g>
<path opacity="0.1" fill-rule="evenodd" clip-rule="evenodd" d="M919.939 909.601C919.939 902.167 957.461 896.141 1003.75 896.141C1050.03 896.141 1087.55 902.167 1087.55 909.601C1087.55 917.035 1050.03 923.062 1003.75 923.062C957.461 923.062 919.939 917.035 919.939 909.601Z" fill="#236BFE"/>
<path fill-rule="evenodd" clip-rule="evenodd" d="M1001.06 773.163V651.748H1006.44V773.163H1001.06Z" fill="#535461"/>
<path fill-rule="evenodd" clip-rule="evenodd" d="M1040.34 772.794L1040 778.264L1039.52 786.005L1039.32 789.222L1038.85 796.963L1038.64 800.18L1038.16 807.92L1032.72 895.711C1032.23 903.551 1025.73 909.659 1017.88 909.662H989.616C981.763 909.659 975.265 903.549 974.779 895.711L969.369 807.86L968.888 800.119L968.69 796.903L968.208 789.162L968.01 785.945L967.529 778.204L967.185 772.734C967.064 770.606 967.826 768.522 969.291 766.974C970.756 765.426 972.794 764.551 974.926 764.554H1032.73C1034.86 764.573 1036.88 765.468 1038.32 767.029C1039.76 768.589 1040.49 770.676 1040.34 772.794L1040.34 772.794Z" fill="#3F3D56"/>
<path fill-rule="evenodd" clip-rule="evenodd" d="M1040 778.263L1039.51 785.983H967.978L967.496 778.263H1040Z" fill="#9D9CB5"/>
<path fill-rule="evenodd" clip-rule="evenodd" d="M1039.32 789.197L1038.84 796.924H968.657L968.175 789.197H1039.32Z" fill="#9D9CB5"/>
<path fill-rule="evenodd" clip-rule="evenodd" d="M1038.64 800.144L1038.16 807.864H969.336L968.854 800.144H1038.64Z" fill="#9D9CB5"/>
<path fill-rule="evenodd" clip-rule="evenodd" d="M959.261 697.257C990.664 719.979 1003.77 755.515 1003.77 755.515C1003.77 755.515 965.927 754.217 934.516 731.495C903.104 708.773 890.022 673.245 890.022 673.245C890.022 673.245 927.85 674.535 959.261 697.257V697.257Z" fill="#236BFE"/>
<path d="M890 673.245C890 673.245 929.289 695.047 941.889 713.099C954.489 731.151 1003.77 755.515 1003.77 755.515" stroke="#535461" stroke-width="2"/>
<path fill-rule="evenodd" clip-rule="evenodd" d="M979.533 651.483C996.624 663.844 1003.77 683.19 1003.77 683.19C1003.77 683.19 983.172 682.485 966.072 670.124C948.972 657.763 941.841 638.409 941.841 638.409C941.841 638.409 962.433 639.114 979.533 651.483V651.483Z" fill="#236BFE"/>
<path d="M941.841 638.409C941.841 638.409 963.225 650.279 970.08 660.102C976.935 669.926 1003.77 683.19 1003.77 683.19" stroke="#535461" stroke-width="2"/>
<path fill-rule="evenodd" clip-rule="evenodd" d="M1028.59 682.204C1008.95 703.782 1004.8 731.982 1004.8 731.982C1004.8 731.982 1032.48 725.188 1052.1 703.601C1071.72 682.015 1075.89 653.824 1075.89 653.824C1075.89 653.824 1048.22 660.627 1028.59 682.204Z" fill="#236BFE"/>
<path d="M1075.9 653.831C1075.9 653.831 1050.33 675.951 1043.82 691.191C1037.32 706.43 1004.8 731.982 1004.8 731.982" stroke="#535461" stroke-width="2"/>
<path fill-rule="evenodd" clip-rule="evenodd" d="M1637.24 615.824C1636.95 615.886 1636.69 616.013 1636.46 616.193C1635.72 617.24 1635.26 618.455 1635.11 619.728L1632.43 619.126C1632.43 619.126 1630.54 618.722 1627.84 618.266L1626.55 616.976C1630.08 616.684 1633.74 616.254 1637.24 615.824L1637.24 615.824ZM1643.14 615.007V615.179L1641.42 615.265L1643.14 615.007ZM1749.38 674.61C1749.38 674.61 1735.18 603.963 1740.62 595.173C1740.62 595.173 1740.82 587.002 1740.49 576.587C1740.49 576.191 1740.49 575.796 1740.49 575.391C1741.45 576.029 1742.44 576.604 1743.47 577.111C1748.48 579.684 1754.23 580.427 1759.73 579.21L1755.43 574.419C1754.4 573.275 1753.32 572.037 1753.1 570.523C1752.87 569.009 1753.49 567.659 1754.03 566.309C1758.11 555.988 1758.33 543.009 1750.46 535.131C1743.81 528.508 1742.19 519.959 1734.98 513.913C1729.7 509.483 1726.8 502.99 1724.07 496.711C1721.76 491.405 1719.43 486.055 1718.1 480.43C1717.07 476.035 1716.66 471.485 1715.24 467.193C1713.82 462.902 1711.16 458.73 1707.01 456.812C1705.53 456.133 1703.88 455.746 1702.53 454.843C1700.76 453.647 1699.7 451.703 1698.41 450C1691.9 441.4 1670.1 446.465 1659.78 449.957C1656.97 450.837 1654.37 452.276 1652.14 454.189L1652.24 454.034C1652.31 453.905 1652.41 453.776 1652.49 453.647C1651.36 454.561 1650.39 455.65 1649.6 456.872C1648.1 459.255 1647.47 462.033 1646.22 464.613C1644.7 467.666 1636.28 476.19 1639.9 479.622C1640.16 479.852 1640.45 480.038 1640.76 480.172C1642.12 480.738 1643.62 480.887 1645.06 480.602L1644.91 480.972C1643.67 484 1643.04 487.24 1643.04 490.51C1643.04 504.641 1654.7 516.097 1669.09 516.097C1671.79 516.1 1674.48 515.685 1677.06 514.868C1677.12 515.194 1677.17 515.521 1677.23 515.848C1677.23 515.977 1677.27 516.106 1677.29 516.235V516.235L1676.83 516.872C1676.81 516.832 1676.79 516.795 1676.76 516.76L1663.25 535.63C1661.19 537.083 1649.3 545.684 1648.63 552.135C1647.93 559.196 1647.22 567.461 1647.22 567.461L1647.13 569.233C1645.93 570.231 1644.36 570.656 1642.83 570.394C1638.61 569.706 1638.61 585.876 1638.61 585.876C1638.61 585.876 1635.81 588.456 1633.88 586.22C1631.96 583.983 1626.86 591.561 1626.86 591.561L1594.95 592.937V592.937L1594.22 592.98L1592.5 587.656C1592.12 586.487 1590.86 585.847 1589.69 586.22C1589.56 586.264 1589.43 586.318 1589.3 586.383L1589.18 586.452L1588.96 586.607L1588.85 586.71C1588.79 586.766 1588.73 586.826 1588.68 586.891L1588.57 587.011L1588.52 587.063V587.063C1588.12 587.619 1588 588.334 1588.21 588.989L1589.69 593.556C1583.53 594.795 1577.24 598.287 1582.37 607.902L1556.35 603.094L1564.77 610.164L1608.23 619.135C1607.66 620.167 1608.04 621.663 1609.83 623.771C1617.57 632.862 1631.68 635.33 1637.36 635.967C1638.86 639.32 1640.73 642.494 1642.94 645.428L1642.45 654.484C1642.45 654.484 1628.08 723.514 1625.44 727.015C1626.77 725.509 1627.99 723.908 1629.08 722.224C1624.91 736.407 1619.08 755.819 1617.55 758.726C1615.09 763.37 1612.81 782.163 1615.61 783.367C1616.47 783.737 1618.93 783.556 1622.44 783.29V784.846L1622.29 843.839C1622.29 843.839 1622.99 880.023 1621.06 883.472C1619.12 886.92 1618.61 894.154 1618.61 894.154C1618.61 894.154 1610.87 908.423 1604.73 914.159C1604.69 914.204 1604.65 914.244 1604.6 914.28L1604.41 912.938C1604.41 912.938 1597.04 922.244 1580.73 921.719C1580.73 921.719 1570.92 928.101 1585.47 928.445C1600.02 928.789 1618.61 927.929 1618.61 927.929C1618.61 927.929 1631.59 908.147 1642.46 910.728V925.719H1645.79V910.487C1648.9 908.433 1651.05 905.191 1651.71 901.516C1652.29 897.702 1650.81 893.866 1647.82 891.427C1646.49 890.221 1645.72 888.513 1645.7 886.714L1645.58 886.817C1645.58 886.516 1645.5 886.207 1645.47 885.888C1644.51 878.148 1643.32 862.176 1647.54 850.359C1653.33 834.155 1655.08 811.586 1650.87 798.152C1649.51 793.857 1648.39 789.49 1647.52 785.07C1647.42 784.511 1647.32 783.978 1647.24 783.479C1650.12 783.869 1652.97 784.443 1655.78 785.199C1665.54 787.891 1686.9 788.39 1705.13 788.244C1705.17 788.742 1705.23 789.267 1705.29 789.792C1705.61 793.439 1706.29 797.045 1707.32 800.56C1709.6 807.441 1710.65 837.776 1710.65 837.776C1710.65 837.776 1713.6 862.718 1711.99 872.867C1711.13 878.509 1710.27 884.177 1709.78 889.871V889.982C1709.78 889.982 1704.95 903.744 1701.42 911.218C1701.33 911.407 1701.23 911.596 1701.15 911.777C1700.21 911.863 1699.28 912.068 1698.39 912.388C1698.39 912.388 1693.65 921.848 1688.93 923.414C1684.21 924.979 1685.77 930.131 1696.46 928.239C1707.15 926.347 1723.3 924.798 1723.3 924.798L1723.99 915.148L1727.28 911.037L1726.42 920.661L1729.92 919.973L1729.45 908.268L1734.83 901.542C1734.83 901.542 1741.32 895.762 1731.67 884.392V884.641C1731.57 884.478 1731.48 884.306 1731.36 884.142V884.091C1729.76 881.614 1728.49 876.995 1730.82 868.799C1735.04 853.988 1737.49 840.545 1737.49 840.545C1737.49 840.545 1746.9 804.534 1735.59 787.495H1736.09C1734.93 785.098 1734.11 782.551 1733.65 779.927C1733.59 779.617 1733.54 779.299 1733.5 778.972C1741.86 778.49 1750.08 776.977 1756.78 773.708C1756.75 773.674 1752.72 688.216 1749.38 674.61V674.61Z" fill="url(#paint1_linear_0:169)"/>
<path fill-rule="evenodd" clip-rule="evenodd" d="M1726.02 908.386L1725 920.571L1728.43 919.883L1727.91 906.666L1726.02 908.386Z" fill="#1D2366"/>
<path fill-rule="evenodd" clip-rule="evenodd" d="M1647.73 850.522C1643.59 862.305 1644.76 878.208 1645.69 885.931C1646.04 888.786 1646.36 890.524 1646.36 890.524C1646.36 890.524 1640.17 904.612 1639.65 905.145C1639.14 905.678 1621.45 916.472 1621.45 916.472L1609.09 923.688C1609.09 923.688 1596.55 918.192 1602.56 916.3C1603.79 915.807 1604.9 915.053 1605.81 914.089C1611.83 908.37 1619.39 894.153 1619.39 894.153C1619.39 894.153 1619.9 886.937 1621.8 883.506C1623.69 880.074 1623 844.012 1623 844.012L1623.15 785.226V777.563L1646.67 777.735C1646.82 780.337 1647.16 782.924 1647.69 785.476C1648.53 789.88 1649.63 794.234 1650.97 798.514C1655.11 811.922 1653.39 834.379 1647.73 850.522V850.522Z" fill="#FFB0B1"/>
<path opacity="0.1" fill-rule="evenodd" clip-rule="evenodd" d="M1646.36 890.523C1646.36 890.523 1640.17 904.611 1639.66 905.144C1639.14 905.677 1621.45 916.471 1621.45 916.471L1609.09 923.687C1609.09 923.687 1596.55 918.191 1602.56 916.299C1603.79 915.807 1604.9 915.052 1605.81 914.089L1606.34 917.848L1610.46 917.675L1645.73 885.947C1646.04 888.785 1646.36 890.523 1646.36 890.523V890.523Z" fill="black"/>
<path fill-rule="evenodd" clip-rule="evenodd" d="M1645.92 886.747L1610.46 918.692L1606.34 918.864L1605.48 912.843C1605.48 912.843 1598.27 922.115 1582.26 921.599C1582.26 921.599 1572.64 927.955 1586.89 928.299C1601.15 928.643 1619.35 927.783 1619.35 927.783C1619.35 927.783 1632.06 908 1642.7 910.581V925.521H1645.96V910.443C1649.04 908.376 1651.13 905.145 1651.76 901.498C1652.34 897.717 1650.9 893.909 1647.97 891.452C1646.67 890.232 1645.93 888.53 1645.92 886.747L1645.92 886.747Z" fill="#1D2366"/>
<path fill-rule="evenodd" clip-rule="evenodd" d="M1729.29 868.894C1727.01 877.064 1728.25 881.666 1729.82 884.134V884.186C1731.83 887.234 1733.22 890.642 1733.93 894.223L1734.07 894.997L1717.93 918.52L1709.18 921.96C1709.18 921.96 1695.1 917.152 1697.67 915.776C1698.31 915.441 1699.32 913.652 1700.47 911.183C1703.91 903.744 1708.66 890.017 1708.66 890.017V889.905C1709.16 884.237 1709.95 878.587 1710.83 872.962C1712.4 862.839 1709.51 837.991 1709.51 837.991C1709.51 837.991 1708.48 807.777 1706.24 800.905C1705.23 797.411 1704.56 793.828 1704.24 790.205C1703.77 785.905 1703.67 782.362 1703.67 782.362C1703.67 782.362 1712.94 769.46 1729.94 783.394C1731.3 784.505 1732.49 785.802 1733.49 787.247C1745.23 803.949 1735.78 840.743 1735.78 840.743C1735.78 840.743 1733.41 854.126 1729.29 868.894L1729.29 868.894Z" fill="#FFB0B1"/>
<path opacity="0.1" fill-rule="evenodd" clip-rule="evenodd" d="M1734.09 894.995L1717.95 918.52L1709.2 921.96C1709.2 921.96 1695.12 917.152 1697.69 915.776C1698.33 915.44 1699.34 913.651 1700.49 911.183C1706.45 911.131 1709.54 916.808 1709.54 916.808L1717.09 915.604C1717.09 915.604 1727.05 896.027 1729.29 894.831C1731.53 893.636 1729.63 885.894 1729.63 885.894V883.925C1729.69 883.993 1729.75 884.071 1729.82 884.14V884.191C1731.82 887.239 1733.22 890.648 1733.93 894.229L1734.09 894.995Z" fill="black"/>
<path fill-rule="evenodd" clip-rule="evenodd" d="M1710.06 917.318C1710.06 917.318 1705.76 909.421 1697.52 912.337C1697.52 912.337 1692.88 921.799 1688.25 923.331C1683.61 924.862 1685.16 930.023 1695.64 928.139C1706.11 926.255 1721.9 924.698 1721.9 924.698L1722.59 915.072L1733.23 901.507C1733.23 901.507 1739.58 895.752 1730.14 884.423V886.393C1730.14 886.393 1732.03 894.135 1729.79 895.33C1727.56 896.526 1717.63 916.113 1717.63 916.113L1710.06 917.318Z" fill="#1D2366"/>
<path opacity="0.1" fill-rule="evenodd" clip-rule="evenodd" d="M1646.7 777.72C1646.85 780.32 1647.19 782.904 1647.71 785.454C1638.03 784.036 1629.04 784.741 1623.15 785.205V777.549L1646.7 777.72Z" fill="black"/>
<path opacity="0.1" fill-rule="evenodd" clip-rule="evenodd" d="M1734.45 789.384C1734.45 789.384 1720.68 790.054 1704.27 790.192C1703.81 785.894 1703.71 782.352 1703.71 782.352C1703.71 782.352 1712.98 769.457 1729.97 783.383C1731.33 784.494 1732.53 785.791 1733.52 787.235C1733.79 787.968 1734.1 788.685 1734.45 789.384L1734.45 789.384Z" fill="black"/>
<path fill-rule="evenodd" clip-rule="evenodd" d="M1734.45 787.841C1734.45 787.841 1674.17 790.756 1655.8 785.604C1637.43 780.452 1619.22 784.916 1616.47 783.721C1613.73 782.525 1615.96 763.801 1618.37 759.165C1620.77 754.529 1633.99 707.644 1633.99 707.644L1646.7 641.365L1660.09 637.675L1661.04 637.408L1684.37 630.975L1701.47 626.253C1701.47 626.253 1735.47 758.993 1732.55 768.781C1731.49 772.529 1731.32 776.472 1732.05 780.297C1732.5 782.91 1733.3 785.448 1734.45 787.841Z" fill="#1D2366"/>
<path fill-rule="evenodd" clip-rule="evenodd" d="M1602.39 596.044C1602.39 596.044 1590.34 608.943 1599.46 616.132C1608.58 623.321 1614.58 616.82 1614.58 616.82L1602.39 596.044Z" fill="#C7DAF5"/>
<path opacity="0.1" fill-rule="evenodd" clip-rule="evenodd" d="M1602.39 596.044C1602.39 596.044 1590.34 608.943 1599.46 616.132C1608.58 623.321 1614.58 616.82 1614.58 616.82L1602.39 596.044Z" fill="black"/>
<path fill-rule="evenodd" clip-rule="evenodd" d="M1699.67 511.224C1699.67 511.224 1698.26 512.566 1696.13 514.544C1693.11 517.373 1688.63 521.51 1684.65 524.976C1679.15 529.766 1674.61 533.284 1676.23 530.282C1677.86 527.281 1677.55 522.052 1676.74 517.158C1676.68 516.831 1676.63 516.505 1676.57 516.186C1675.9 512.592 1675.01 509.043 1673.91 505.557C1673.91 505.557 1682.8 494.067 1687.72 489.534C1689.55 487.814 1690.84 487.109 1690.91 488.304C1691 489.913 1692.2 493.465 1693.7 497.231C1693.74 497.352 1693.79 497.464 1693.84 497.584C1694.84 500.164 1695.96 502.813 1696.95 505.101C1698.46 508.61 1699.67 511.224 1699.67 511.224L1699.67 511.224Z" fill="#FFB0B1"/>
<path opacity="0.1" fill-rule="evenodd" clip-rule="evenodd" d="M1693.84 497.582C1692.13 506.734 1685.58 514.234 1676.74 517.151C1676.06 513.226 1675.11 509.351 1673.91 505.552C1673.91 505.552 1690.65 483.928 1690.91 488.304C1690.97 489.964 1692.28 493.644 1693.84 497.582H1693.84Z" fill="black"/>
<path opacity="0.1" fill-rule="evenodd" clip-rule="evenodd" d="M1675.07 522.937L1677.24 519.884C1677.24 519.884 1678.68 528.639 1683.96 524.778C1689.24 520.916 1689.5 553.84 1689.5 553.84L1683.83 638.583L1642.87 636.132L1644.03 595.183L1648.67 574.542L1660.13 544.533L1666.95 534.617L1675.07 522.937Z" fill="black"/>
<path fill-rule="evenodd" clip-rule="evenodd" d="M1689.5 554.364L1684.34 630.983L1683.8 639.102L1660.96 637.735L1660.1 637.683L1642.89 636.651L1644.05 595.697L1648.69 575.056L1660.16 545.05L1666.98 535.134L1675.1 523.412L1677.27 520.367C1677.27 520.367 1678.7 529.122 1683.99 525.261L1684.1 525.183V525.183C1689.26 521.915 1689.5 554.364 1689.5 554.364H1689.5Z" fill="#1D2366"/>
<path fill-rule="evenodd" clip-rule="evenodd" d="M1649.27 567.886C1649.27 567.886 1647.21 572.186 1643.09 571.489C1638.96 570.793 1638.97 586.97 1638.97 586.97C1638.97 586.97 1636.22 589.55 1634.33 587.314C1632.44 585.077 1627.45 592.637 1627.45 592.637L1596.2 594.013C1596.2 594.013 1610.1 600.369 1607.38 619.599C1607.38 619.599 1654.59 616.675 1656.14 612.211C1657.69 607.748 1649.27 567.886 1649.27 567.886V567.886Z" fill="white"/>
<path opacity="0.03" fill-rule="evenodd" clip-rule="evenodd" d="M1649.27 567.886C1649.27 567.886 1647.21 572.186 1643.09 571.489C1638.96 570.793 1638.97 586.97 1638.97 586.97C1638.97 586.97 1636.22 589.55 1634.33 587.314C1632.44 585.077 1627.45 592.637 1627.45 592.637L1596.2 594.013C1596.2 594.013 1610.1 600.369 1607.38 619.599C1607.38 619.599 1654.59 616.675 1656.14 612.211C1657.69 607.748 1649.27 567.886 1649.27 567.886V567.886Z" fill="black"/>
<path fill-rule="evenodd" clip-rule="evenodd" d="M1558.43 604.116L1566.67 611.154L1634.5 625.41L1626.09 616.823L1558.43 604.116Z" fill="white"/>
<path fill-rule="evenodd" clip-rule="evenodd" d="M1675.2 525.647C1674.07 527.367 1670.85 536.174 1668.16 543.863C1665.91 550.27 1664.04 555.904 1664.04 555.904C1664.04 555.904 1659.66 584.406 1657.42 589.558C1655.18 594.71 1656.4 614.801 1656.4 614.801L1648.06 664.418C1648.06 664.418 1644.29 690.004 1638.46 705.288C1632.7 720.33 1626.29 727.383 1626.1 727.606C1628.68 724.114 1642.74 655.361 1642.74 655.361L1647.38 568.65C1647.38 568.65 1648.06 560.411 1648.75 553.367C1649.44 546.323 1663.37 536.707 1663.37 536.707L1676.81 517.605C1678.16 519.411 1677.25 522.559 1675.2 525.647V525.647Z" fill="white"/>
<path fill-rule="evenodd" clip-rule="evenodd" d="M1640.17 637.09C1640.17 637.09 1620.39 636.229 1610.81 624.721C1601.23 613.213 1632.96 620.128 1632.96 620.128L1641.2 622.02L1640.17 637.09Z" fill="#FFB0B1"/>
<path opacity="0.1" fill-rule="evenodd" clip-rule="evenodd" d="M1732.55 768.791C1731.49 772.539 1731.32 776.482 1732.05 780.307C1710.47 781.838 1687.39 776.007 1687.39 776.007C1683.09 779.963 1671.76 785.795 1671.76 785.795L1665.58 709.247C1661.64 698.926 1660.09 644.852 1660.09 644.852C1660.09 644.852 1660.44 642.022 1660.95 637.782C1660.95 637.679 1660.95 637.567 1660.99 637.464C1662.53 625.62 1665.58 603.387 1667.08 600.385C1669.14 596.257 1660.73 585.273 1660.73 585.273L1664.56 552.633L1665.02 548.693C1673.09 545.09 1679.28 533.582 1679.28 533.582L1684.02 525.265V525.265C1689.18 521.953 1689.45 554.404 1689.45 554.404L1684.29 631.03L1701.39 626.308C1701.39 626.308 1735.46 759.003 1732.55 768.791Z" fill="black"/>
<path fill-rule="evenodd" clip-rule="evenodd" d="M1754.69 774.074C1731.17 785.754 1688.42 774.934 1688.42 774.934C1684.12 778.891 1672.79 784.722 1672.79 784.722L1666.61 708.176C1662.67 697.855 1661.12 643.783 1661.12 643.783C1661.12 643.783 1666.09 603.437 1668.16 599.317C1668.76 598.113 1668.47 596.324 1667.75 594.397C1664.24 585.228 1662.95 575.358 1663.99 565.594L1665.64 551.566L1666.09 547.635C1674.17 544.023 1680.35 532.515 1680.35 532.515L1684.65 524.981L1692.56 511.1L1696.31 504.529L1696.95 505.105L1701.81 509.509C1701.81 509.509 1703.87 511.229 1706.97 513.809C1713.7 519.485 1725.34 529.479 1731.34 535.595C1736.63 540.979 1738.29 561.921 1738.78 577.686C1739.09 588.067 1738.9 596.204 1738.9 596.204C1733.58 604.968 1747.5 675.33 1747.5 675.33C1750.75 688.928 1754.69 774.074 1754.69 774.074V774.074Z" fill="white"/>
<path opacity="0.03" fill-rule="evenodd" clip-rule="evenodd" d="M1709.54 532.346C1709.54 532.346 1693.4 563.076 1695.28 574.755C1697.15 586.435 1702.48 599.654 1699.91 602.742C1698.12 605.113 1695.32 606.51 1692.35 606.517C1689.77 606.689 1682.89 611.497 1682.89 612.013C1682.89 612.529 1676.54 612.529 1670.85 614.937C1665.16 617.346 1656.77 618.713 1656.77 618.713C1656.77 618.713 1640.43 618.197 1638.91 619.745C1637.38 621.293 1635.82 630.556 1639.08 637.944C1642.34 645.332 1645.96 650.845 1648.69 651.851C1651.43 652.858 1668.79 647.044 1682.87 645.667C1696.94 644.291 1712.23 633.136 1712.23 633.136C1712.23 633.136 1729.06 627.116 1732.01 616.993C1734.96 606.87 1728.41 551.233 1728.41 551.233C1728.41 551.233 1723.45 525.302 1709.54 532.346V532.346Z" fill="black"/>
<path opacity="0.03" fill-rule="evenodd" clip-rule="evenodd" d="M1707.48 529.768C1707.48 529.768 1691.33 560.506 1693.23 572.176C1695.12 583.847 1700.43 597.075 1697.85 600.171C1696.07 602.545 1693.27 603.943 1690.3 603.946C1687.72 604.118 1680.84 608.926 1680.84 609.442C1680.84 609.958 1674.49 609.958 1668.8 612.358C1663.12 614.757 1654.72 616.133 1654.72 616.133C1654.72 616.133 1638.38 615.617 1636.87 617.165C1635.35 618.713 1633.77 627.985 1637.04 635.364C1640.31 642.743 1643.92 648.264 1646.66 649.271C1649.39 650.277 1666.75 644.463 1680.83 643.096C1694.9 641.728 1710.19 630.556 1710.19 630.556C1710.19 630.556 1727.01 624.536 1729.92 614.422C1732.84 604.308 1726.32 548.654 1726.32 548.654C1726.32 548.654 1721.38 522.732 1707.48 529.768V529.768Z" fill="black"/>
<path fill-rule="evenodd" clip-rule="evenodd" d="M1709.03 530.791C1709.03 530.791 1692.89 561.532 1694.78 573.204C1696.67 584.876 1701.99 598.104 1699.42 601.192C1697.63 603.572 1694.83 604.974 1691.86 604.977C1689.28 605.149 1682.4 609.957 1682.4 610.464C1682.4 610.972 1676.05 610.98 1670.36 613.389C1664.66 615.797 1656.28 617.164 1656.28 617.164C1656.28 617.164 1639.94 616.648 1638.42 618.197C1636.89 619.745 1635.33 629.017 1638.59 636.397C1641.85 643.777 1645.47 649.299 1648.2 650.305C1650.94 651.311 1668.29 645.497 1682.37 644.121C1696.45 642.744 1711.73 631.589 1711.73 631.589C1711.73 631.589 1728.56 625.568 1731.51 615.444C1734.46 605.321 1727.95 549.68 1727.95 549.68C1727.95 549.68 1722.93 523.79 1709.03 530.791L1709.03 530.791Z" fill="white"/>
<path opacity="0.1" fill-rule="evenodd" clip-rule="evenodd" d="M1708.68 613.24C1708.68 613.24 1695.79 610.657 1700.27 614.961C1704.76 619.266 1704.74 623.036 1710.23 622.864C1715.72 622.692 1708.68 613.24 1708.68 613.24Z" fill="black"/>
<path opacity="0.1" fill-rule="evenodd" clip-rule="evenodd" d="M1729.94 705.771C1729.94 705.771 1726.21 709.151 1733.34 716.941C1740.46 724.732 1729.94 705.771 1729.94 705.771Z" fill="black"/>
<path opacity="0.1" fill-rule="evenodd" clip-rule="evenodd" d="M1719.28 738.223C1719.28 738.728 1717.81 756.745 1723.31 761.25C1728.8 765.754 1719.28 738.223 1719.28 738.223Z" fill="black"/>
<path fill-rule="evenodd" clip-rule="evenodd" d="M1596.72 593.968C1590.5 594.183 1577.05 596.084 1584.02 609.097C1590.19 620.614 1600.55 612.916 1606.38 607.076C1604.96 601.631 1601.5 596.939 1596.72 593.968V593.968Z" fill="#FFB0B1"/>
<path fill-rule="evenodd" clip-rule="evenodd" d="M1606.47 606.977L1606.72 606.704L1606.47 606.977Z" fill="#FFB0B1"/>
<path opacity="0.1" fill-rule="evenodd" clip-rule="evenodd" d="M1706.97 514.333C1700.37 518.849 1694.83 522.66 1693.74 523.451C1690.78 525.645 1685.14 538.522 1681.5 545.094C1678.6 550.385 1669.18 551.744 1665.63 552.079L1666.09 548.148C1674.17 544.535 1680.35 533.025 1680.35 533.025L1696.32 505.034L1701.81 510.032C1701.81 510.032 1703.88 511.752 1706.97 514.333L1706.97 514.333Z" fill="black"/>
<path fill-rule="evenodd" clip-rule="evenodd" d="M1706.97 513.819C1700.37 518.334 1694.83 522.144 1693.74 522.944C1690.78 525.128 1685.14 538.003 1681.5 544.574C1678.6 549.863 1669.18 551.222 1665.63 551.557L1666.09 547.627C1674.17 544.015 1680.35 532.507 1680.35 532.507L1696.32 504.522L1701.81 509.501C1701.81 509.501 1703.88 511.204 1706.97 513.819L1706.97 513.819Z" fill="#DCE7FF"/>
<path fill-rule="evenodd" clip-rule="evenodd" d="M1694.26 491.902C1694.26 497.065 1692.7 502.108 1689.77 506.361C1682.62 516.753 1668.96 520.365 1657.61 514.86C1646.27 509.355 1640.64 496.385 1644.38 484.341C1648.12 472.296 1660.1 464.792 1672.57 466.682C1685.04 468.573 1694.26 479.29 1694.26 491.902L1694.26 491.902Z" fill="#FFB0B1"/>
<path opacity="0.1" fill-rule="evenodd" clip-rule="evenodd" d="M1738.77 577.693C1735.28 575.544 1732.44 572.488 1730.54 568.851C1729.11 566.013 1728.15 562.736 1725.7 560.723C1723.49 558.917 1720.54 558.478 1717.79 557.67C1708.74 554.995 1701.16 546.738 1700.87 537.312C1700.73 532.874 1702.12 528.444 1701.49 524.049C1701.13 521.562 1700.14 519.207 1698.62 517.211C1697.86 516.257 1697.03 515.362 1696.13 514.537C1694.93 513.401 1693.66 512.3 1692.56 511.096C1691.87 510.351 1691.26 509.528 1690.76 508.645C1690.35 507.922 1690.02 507.158 1689.77 506.366C1688.05 501.102 1689.61 494.858 1687.72 489.534L1687.62 489.241C1686.9 487.349 1685.45 485.457 1683.43 485.311C1681.41 485.165 1679.68 486.842 1677.75 487.59C1673.72 489.155 1669.37 486.489 1666 483.771C1662.64 481.053 1658.85 477.948 1654.57 478.55C1651.74 478.955 1649.51 480.881 1646.9 481.879C1646.31 482.107 1645.71 482.282 1645.09 482.404C1649.64 471.059 1661.6 464.537 1673.6 466.857C1685.6 469.176 1694.26 479.685 1694.26 491.908C1694.26 493.697 1694.07 495.482 1693.7 497.232C1693.74 497.352 1693.78 497.464 1693.84 497.584C1694.83 500.164 1695.96 502.814 1696.95 505.101L1701.81 509.505C1701.81 509.505 1703.87 511.225 1706.97 513.805C1713.7 519.482 1725.34 529.476 1731.34 535.591C1736.62 540.993 1738.28 561.927 1738.77 577.693L1738.77 577.693Z" fill="black"/>
<path fill-rule="evenodd" clip-rule="evenodd" d="M1646.61 466.171C1647.84 463.668 1648.45 460.864 1649.92 458.49C1652.08 455.05 1655.84 452.848 1659.71 451.515C1669.82 448.032 1691.17 442.974 1697.55 451.515C1698.81 453.235 1699.85 455.144 1701.59 456.331C1702.91 457.234 1704.51 457.621 1705.97 458.301C1710.03 460.21 1712.63 464.373 1714.02 468.622C1715.4 472.871 1715.81 477.429 1716.83 481.807C1718.13 487.423 1720.41 492.747 1722.68 498.037C1725.35 504.281 1728.19 510.757 1733.35 515.169C1740.39 521.19 1741.95 529.713 1748.49 536.319C1756.23 544.163 1755.98 557.107 1751.99 567.385C1751.46 568.735 1750.87 570.146 1751.07 571.582C1751.28 573.018 1752.35 574.326 1753.35 575.469L1757.58 580.243C1747.57 582.66 1736.25 577.43 1731.59 568.253C1730.15 565.415 1729.19 562.147 1726.74 560.126C1724.53 558.319 1721.57 557.889 1718.83 557.081C1709.78 554.397 1702.2 546.132 1701.91 536.706C1701.78 532.276 1703.16 527.847 1702.53 523.46C1702.18 520.956 1701.19 518.586 1699.65 516.58C1697.29 513.492 1693.72 511.419 1691.79 507.979C1688.53 502.225 1691.01 494.751 1688.66 488.576C1687.94 486.683 1686.49 484.791 1684.47 484.645C1682.45 484.499 1680.72 486.176 1678.79 486.924C1674.76 488.49 1670.41 485.832 1667.05 483.106C1663.69 480.379 1659.89 477.283 1655.61 477.893C1652.78 478.289 1650.55 480.216 1647.95 481.222C1646.02 481.962 1642.12 482.624 1640.43 480.998C1636.87 477.721 1645.12 469.232 1646.61 466.171L1646.61 466.171Z" fill="#591D4B"/>
<path opacity="0.1" fill-rule="evenodd" clip-rule="evenodd" d="M1733.98 565.417C1732.53 562.579 1731.58 559.31 1729.13 557.298C1726.92 555.491 1723.96 555.053 1721.21 554.244C1712.17 551.569 1704.59 543.303 1704.29 533.876C1704.16 529.447 1705.54 525.009 1704.92 520.622C1704.56 518.134 1703.57 515.78 1702.04 513.784C1699.67 510.696 1696.1 508.623 1694.18 505.183C1690.92 499.437 1693.4 491.963 1691.04 485.778C1690.33 483.894 1688.87 482.002 1686.86 481.847C1684.85 481.693 1683.1 483.387 1681.18 484.135C1677.15 485.701 1672.79 483.034 1669.44 480.316C1666.08 477.598 1662.27 474.493 1658 475.095C1655.17 475.5 1652.93 477.426 1650.33 478.424C1648.41 479.164 1644.49 479.835 1642.81 478.209C1639.26 474.769 1647.51 466.296 1648.99 463.251C1650.22 460.74 1650.83 457.944 1652.31 455.57C1652.39 455.441 1652.47 455.312 1652.56 455.183C1651.45 456.1 1650.5 457.186 1649.73 458.4C1648.26 460.774 1647.65 463.561 1646.42 466.081C1644.93 469.126 1636.68 477.624 1640.24 481.039C1641.96 482.673 1645.83 482.002 1647.75 481.262C1650.33 480.256 1652.59 478.329 1655.42 477.934C1659.72 477.323 1663.5 480.428 1666.86 483.146C1670.21 485.864 1674.6 488.531 1678.6 486.965C1680.53 486.217 1682.22 484.531 1684.28 484.686C1686.34 484.841 1687.72 486.724 1688.47 488.617C1690.82 494.792 1688.34 502.267 1691.6 508.021C1693.53 511.401 1697.1 513.517 1699.46 516.622C1701 518.628 1701.99 520.999 1702.34 523.503C1702.97 527.89 1701.59 532.32 1701.72 536.749C1702.01 546.211 1709.59 554.442 1718.64 557.126C1721.37 557.934 1724.34 558.364 1726.54 560.17C1729.01 562.192 1729.99 565.46 1731.4 568.299C1736.06 577.476 1747.38 582.706 1757.4 580.289L1755.4 578.035C1746.72 578.164 1737.94 573.227 1733.98 565.417L1733.98 565.417Z" fill="black"/>
<path opacity="0.1" fill-rule="evenodd" clip-rule="evenodd" d="M1674.68 526.161C1673.55 527.881 1670.33 536.686 1667.64 544.374C1665.12 543.394 1662.83 537.142 1662.83 537.142L1676.26 518.035C1677.64 519.927 1676.74 523.066 1674.68 526.161Z" fill="black"/>
<path fill-rule="evenodd" clip-rule="evenodd" d="M1675.2 525.641C1674.07 527.362 1670.85 536.171 1668.16 543.862C1665.64 542.89 1663.35 536.627 1663.35 536.627L1676.78 517.52C1678.16 519.404 1677.26 522.553 1675.2 525.641Z" fill="#DCE7FF"/>
<path fill-rule="evenodd" clip-rule="evenodd" d="M1597.09 613.512L1589.64 590.021C1589.47 589.466 1589.52 588.862 1589.78 588.344C1590.05 587.826 1590.52 587.436 1591.07 587.26V587.26C1592.22 586.9 1593.45 587.537 1593.82 588.688L1601.27 612.153L1600.53 617.064L1597.09 613.512Z" fill="#BE8B87"/>
<path opacity="0.1" fill-rule="evenodd" clip-rule="evenodd" d="M1590.34 587.961V587.961C1591.5 587.595 1592.73 588.234 1593.1 589.388L1600.55 612.845L1599.99 616.526L1600.53 617.093L1601.27 612.183L1593.78 588.726C1593.41 587.576 1592.19 586.939 1591.03 587.299V587.299C1590.57 587.45 1590.16 587.753 1589.89 588.159C1590.03 588.08 1590.19 588.014 1590.34 587.961L1590.34 587.961Z" fill="white"/>
<path fill-rule="evenodd" clip-rule="evenodd" d="M1597.09 613.506L1601.27 612.181L1600.66 616.207L1600.53 617.093L1599.3 615.82L1597.09 613.506Z" fill="#EFC8C4"/>
<path fill-rule="evenodd" clip-rule="evenodd" d="M1599.3 615.826C1599.38 615.734 1599.47 615.657 1599.57 615.602C1599.69 615.523 1599.85 615.523 1599.97 615.602C1600.03 615.673 1600.08 615.751 1600.12 615.834C1600.24 616.027 1600.43 616.157 1600.65 616.188L1600.53 617.05L1599.3 615.826Z" fill="#727A9C"/>
<path fill-rule="evenodd" clip-rule="evenodd" d="M1589.59 598.368C1589.59 598.368 1604.54 598.282 1601.02 604.634C1597.5 610.986 1592 611.751 1592 611.751L1589.59 598.368Z" fill="#FFB0B1"/>
<path fill-rule="evenodd" clip-rule="evenodd" d="M1487.45 476.061C1481.47 476.038 1476.12 472.341 1473.98 466.755H1458.63C1456.56 466.742 1454.73 465.415 1454.07 463.452L1449.35 449.252L1434.44 501.364C1433.84 503.425 1431.96 504.844 1429.81 504.848H1429.51C1427.26 504.739 1425.4 503.076 1425.04 500.857L1409.67 408.416L1398.44 463.117C1397.91 465.255 1395.99 466.756 1393.78 466.755H1372.17C1370.4 466.829 1368.74 465.931 1367.84 464.414C1366.93 462.897 1366.93 461.006 1367.84 459.489C1368.74 457.972 1370.4 457.073 1372.17 457.148H1390L1405.91 383.602C1406.45 381.36 1408.5 379.812 1410.8 379.909C1413.11 380.005 1415.02 381.718 1415.37 383.998L1431.07 478.297L1444.43 431.672C1445 429.655 1446.83 428.255 1448.93 428.232L1449.03 428.232C1451.1 428.233 1452.94 429.565 1453.58 431.535L1462.11 457.173H1473.79C1476.09 450.172 1483.31 446.037 1490.51 447.588C1497.72 449.139 1502.59 455.876 1501.81 463.205C1501.03 470.535 1494.85 476.095 1487.48 476.095L1487.45 476.061ZM1496.68 313.119H1496.04C1470.37 313.119 1447.67 326.7 1434.62 346.739C1421.56 326.7 1398.87 313.119 1373.2 313.119H1372.56C1332.47 313.501 1300.17 346.094 1300.15 386.183C1300.15 410.101 1310.62 444.04 1331.05 471.967C1369.97 525.18 1434.62 571.736 1434.62 571.736C1434.62 571.736 1499.27 525.189 1538.18 471.967C1558.62 444.04 1569.08 410.101 1569.08 386.183C1569.06 346.097 1536.77 313.506 1496.68 313.119V313.119Z" fill="#236BFE"/>
<defs>
<linearGradient id="paint0_linear_0:169" x1="1288.92" y1="935.34" x2="1288.92" y2="406.1" gradientUnits="userSpaceOnUse">
<stop stop-color="#808080" stop-opacity="0.25"/>
<stop offset="0.54" stop-color="#808080" stop-opacity="0.12"/>
<stop offset="1" stop-color="#808080" stop-opacity="0.1"/>
</linearGradient>
<linearGradient id="paint1_linear_0:169" x1="1759.7" y1="928.65" x2="1759.7" y2="445.28" gradientUnits="userSpaceOnUse">
<stop stop-color="#808080" stop-opacity="0.25"/>
<stop offset="0.54" stop-color="#808080" stop-opacity="0.12"/>
<stop offset="1" stop-color="#808080" stop-opacity="0.1"/>
</linearGradient>
</defs>
</svg>
